<?xml version="1.0" encoding="utf-8"?>
<!-- Generator: Adobe Illustrator 16.0.0, SVG Export Plug-In . SVG Version: 6.00 Build 0)  -->
<!DOCTYPE svg PUBLIC "-//W3C//DTD SVG 1.1//EN" "http://www.w3.org/Graphics/SVG/1.1/DTD/svg11.dtd">
<svg version="1.1"
	 id="Layer_1" xmlns:rdf="http://www.w3.org/1999/02/22-rdf-syntax-ns#" xmlns:cc="http://creativecommons.org/ns#" xmlns:dc="http://purl.org/dc/elements/1.1/"
	 xmlns="http://www.w3.org/2000/svg" xmlns:xlink="http://www.w3.org/1999/xlink" x="0px" y="0px" width="47.888px" height="45px"
	 viewBox="0.004 0 47.888 45" enable-background="new 0.004 0 47.888 45" xml:space="preserve">
<path fill="#F57A14" d="M14.159,8.808c-0.28-0.354-0.787-0.409-1.142-0.132c-0.349,0.279-0.411,0.785-0.134,1.139
	c0.28,0.353,0.79,0.412,1.141,0.135C14.376,9.668,14.437,9.161,14.159,8.808 M22.318,5.749c-0.065-0.445-0.478-0.75-0.923-0.684
	c-0.442,0.065-0.75,0.474-0.685,0.919c0.064,0.445,0.477,0.749,0.921,0.685C22.074,6.602,22.383,6.193,22.318,5.749 M26.265,38.334
	c-0.441,0.064-0.749,0.477-0.684,0.92c0.064,0.445,0.479,0.75,0.92,0.685c0.443-0.065,0.752-0.476,0.686-0.921
	C27.125,38.574,26.712,38.268,26.265,38.334 M33.872,35.055c-0.35,0.279-0.411,0.787-0.133,1.139
	c0.277,0.353,0.789,0.408,1.139,0.133c0.353-0.279,0.412-0.787,0.135-1.141C34.735,34.836,34.225,34.775,33.872,35.055
	 M9.133,33.529c0.335,0.904,1.33,1.354,2.222,1.021c0.898-0.331,1.357-1.32,1.023-2.223c-0.331-0.894-1.326-1.353-2.222-1.019
	C9.261,31.641,8.802,32.639,9.133,33.529 M12.412,36.453c0.259,0.832,1.135,1.287,1.961,1.027c0.827-0.255,1.291-1.131,1.032-1.961
	c-0.257-0.826-1.14-1.287-1.966-1.029C12.613,34.746,12.153,35.625,12.412,36.453 M16.523,38.438
	c0.171,0.676,0.855,1.078,1.528,0.907c0.674-0.173,1.081-0.853,0.909-1.528c-0.172-0.674-0.858-1.08-1.531-0.908
	C16.758,37.08,16.351,37.764,16.523,38.438 M20.976,39.408c0.112,0.564,0.661,0.929,1.224,0.816c0.561-0.113,0.927-0.66,0.813-1.225
	c-0.111-0.561-0.66-0.926-1.223-0.814C21.229,38.299,20.864,38.848,20.976,39.408 M8.077,26.486
	c0.855-0.423,1.206-1.461,0.781-2.316c-0.427-0.861-1.46-1.207-2.319-0.781c-0.852,0.421-1.209,1.455-0.782,2.316
	C6.181,26.563,7.221,26.91,8.077,26.486 M8.016,21.915c0.755-0.422,1.023-1.381,0.6-2.135c-0.425-0.758-1.381-1.024-2.136-0.598
	c-0.756,0.422-1.023,1.376-0.599,2.134C6.305,22.069,7.26,22.339,8.016,21.915 M8.997,17.354c0.588-0.37,0.762-1.15,0.39-1.739
	s-1.148-0.759-1.736-0.388c-0.585,0.373-0.763,1.146-0.389,1.735C7.633,17.551,8.41,17.726,8.997,17.354 M11.06,13.305
	c0.468-0.333,0.578-0.98,0.247-1.446c-0.335-0.473-0.979-0.579-1.446-0.248c-0.469,0.333-0.583,0.976-0.248,1.449
	C9.945,13.526,10.593,13.636,11.06,13.305 M9.256,30.887c0.952-0.41,1.391-1.519,0.979-2.473c-0.412-0.959-1.518-1.393-2.469-0.983
	c-0.954,0.411-1.398,1.514-0.985,2.473C7.193,30.858,8.303,31.299,9.256,30.887 M30.307,37.246c-0.382,0.164-0.56,0.608-0.395,0.99
	c0.167,0.389,0.609,0.563,0.992,0.396c0.384-0.164,0.563-0.608,0.397-0.993C31.136,37.257,30.691,37.08,30.307,37.246
	 M39.819,18.516c-0.853,0.422-1.204,1.46-0.781,2.315c0.428,0.863,1.462,1.207,2.318,0.781c0.854-0.42,1.208-1.454,0.781-2.315
	C41.714,18.443,40.674,18.092,39.819,18.516 M39.879,23.087c-0.752,0.423-1.024,1.38-0.6,2.138c0.428,0.756,1.383,1.02,2.135,0.595
	c0.756-0.423,1.025-1.375,0.6-2.132C41.589,22.931,40.635,22.662,39.879,23.087 M38.901,27.646
	c-0.586,0.371-0.763,1.149-0.391,1.735c0.373,0.589,1.149,0.761,1.736,0.39c0.586-0.371,0.764-1.145,0.39-1.736
	C40.263,27.451,39.486,27.275,38.901,27.646 M36.837,31.697c-0.469,0.332-0.579,0.98-0.248,1.447c0.333,0.471,0.98,0.578,1.45,0.248
	c0.468-0.33,0.577-0.977,0.244-1.449C37.953,31.477,37.305,31.365,36.837,31.697 M17.986,6.765c-0.166-0.386-0.611-0.56-0.995-0.394
	c-0.382,0.164-0.561,0.607-0.395,0.994c0.165,0.381,0.611,0.556,0.994,0.392C17.972,7.591,18.151,7.146,17.986,6.765 M38.762,11.469
	c-0.332-0.901-1.328-1.352-2.221-1.02c-0.896,0.33-1.356,1.321-1.022,2.22c0.332,0.897,1.327,1.355,2.22,1.024
	C38.635,13.363,39.095,12.366,38.762,11.469 M35.485,8.548c-0.259-0.83-1.138-1.289-1.963-1.029
	c-0.824,0.256-1.291,1.134-1.03,1.964c0.257,0.826,1.14,1.288,1.963,1.029C35.283,10.254,35.743,9.373,35.485,8.548 M31.377,6.566
	c-0.174-0.678-0.86-1.08-1.53-0.908c-0.673,0.171-1.081,0.853-0.907,1.53c0.171,0.673,0.858,1.082,1.529,0.906
	C31.14,7.923,31.548,7.237,31.377,6.566 M26.919,5.596c-0.112-0.567-0.658-0.927-1.22-0.815c-0.563,0.112-0.93,0.655-0.815,1.221
	c0.111,0.561,0.659,0.927,1.223,0.814C26.668,6.702,27.031,6.156,26.919,5.596 M40.132,17.572c-0.954,0.412-2.062-0.03-2.474-0.985
	c-0.413-0.958,0.029-2.06,0.984-2.473c0.953-0.41,2.058,0.025,2.472,0.984C41.526,16.051,41.086,17.16,40.132,17.572 M19.381,1.431
	c-0.149-0.556-0.719-0.881-1.275-0.732c-0.553,0.149-0.885,0.715-0.735,1.27c0.149,0.558,0.722,0.884,1.272,0.736
	C19.199,2.556,19.529,1.987,19.381,1.431 M30.528,1.971c0.148-0.556-0.185-1.124-0.739-1.272c-0.553-0.147-1.122,0.176-1.271,0.734
	c-0.148,0.556,0.182,1.125,0.735,1.272C29.807,2.853,30.379,2.526,30.528,1.971 M18.642,42.295
	c-0.551-0.146-1.122,0.182-1.272,0.736c-0.147,0.556,0.183,1.123,0.735,1.271c0.557,0.149,1.128-0.177,1.275-0.733
	C19.529,43.014,19.199,42.444,18.642,42.295 M29.252,42.295c-0.553,0.149-0.883,0.719-0.735,1.274
	c0.148,0.556,0.722,0.882,1.272,0.732c0.557-0.147,0.887-0.715,0.737-1.271C30.379,42.477,29.806,42.148,29.252,42.295 M0.93,27.958
	c-0.063,1.229,0.879,2.263,2.095,2.326c1.225,0.063,2.267-0.864,2.331-2.095c0.064-1.221-0.875-2.263-2.095-2.326
	C2.04,25.799,0.994,26.738,0.93,27.958 M3.302,33.057c-0.116,1.109,0.683,2.09,1.788,2.207c1.101,0.115,2.091-0.678,2.207-1.787
	c0.116-1.102-0.687-2.092-1.789-2.207C4.405,31.153,3.419,31.955,3.302,33.057 M7.133,37.475c-0.14,0.883,0.46,1.703,1.338,1.844
	c0.879,0.139,1.705-0.457,1.845-1.339c0.139-0.879-0.461-1.704-1.341-1.843C8.096,35.998,7.271,36.598,7.133,37.475 M11.879,40.875
	c-0.154,0.723,0.307,1.428,1.022,1.58c0.719,0.152,1.426-0.303,1.579-1.025c0.152-0.717-0.307-1.426-1.025-1.578
	C12.738,39.699,12.03,40.16,11.879,40.875 M3.26,19.137c1.221-0.063,2.158-1.106,2.096-2.329c-0.064-1.229-1.106-2.159-2.332-2.094
	c-1.215,0.064-2.159,1.098-2.094,2.326C0.994,18.262,2.04,19.201,3.26,19.137 M5.509,13.73c1.103-0.116,1.905-1.105,1.789-2.208
	c-0.116-1.107-1.106-1.905-2.207-1.789c-1.106,0.116-1.905,1.101-1.788,2.209C3.418,13.045,4.404,13.847,5.509,13.73 M8.974,8.866
	c0.88-0.139,1.479-0.966,1.34-1.846c-0.139-0.883-0.965-1.477-1.846-1.337C7.592,5.821,6.991,6.641,7.132,7.524
	C7.27,8.403,8.095,9.006,8.974,8.866 M13.455,5.148c0.719-0.153,1.178-0.858,1.025-1.579c-0.153-0.721-0.858-1.174-1.577-1.021
	c-0.718,0.152-1.179,0.854-1.025,1.576C12.03,4.842,12.738,5.301,13.455,5.148 M2.415,24.91c1.328,0,2.406-1.08,2.406-2.412
	c0-1.337-1.078-2.407-2.406-2.407c-1.327,0-2.411,1.07-2.411,2.41C0.004,23.83,1.088,24.91,2.415,24.91 M23.948,43.066
	c-0.533,0-0.968,0.432-0.968,0.969c0,0.535,0.435,0.965,0.968,0.965c0.535,0,0.97-0.43,0.97-0.967
	C24.918,43.498,24.483,43.066,23.948,43.066 M44.634,25.863c-1.216,0.063-2.156,1.105-2.092,2.326
	c0.064,1.23,1.105,2.158,2.328,2.096c1.218-0.064,2.159-1.098,2.094-2.327C46.901,26.738,45.856,25.799,44.634,25.863 M42.385,31.27
	c-1.101,0.115-1.904,1.105-1.789,2.207c0.117,1.109,1.108,1.902,2.209,1.788c1.104-0.118,1.903-1.099,1.787-2.208
	C44.476,31.953,43.489,31.153,42.385,31.27 M38.924,36.136c-0.88,0.14-1.48,0.965-1.34,1.844c0.139,0.882,0.965,1.478,1.844,1.339
	c0.877-0.141,1.478-0.96,1.339-1.844C40.627,36.596,39.801,35.998,38.924,36.136 M34.441,39.852
	c-0.72,0.152-1.179,0.861-1.026,1.578c0.154,0.723,0.86,1.179,1.579,1.025c0.718-0.152,1.178-0.857,1.023-1.58
	C35.865,40.16,35.159,39.699,34.441,39.852 M24.918,0.967C24.918,0.43,24.483,0,23.948,0c-0.533,0-0.968,0.429-0.968,0.966
	c0,0.537,0.435,0.968,0.968,0.968C24.483,1.935,24.918,1.503,24.918,0.967 M46.966,17.041c0.064-1.229-0.878-2.262-2.096-2.326
	c-1.221-0.065-2.264,0.865-2.328,2.094c-0.064,1.223,0.876,2.265,2.092,2.329C45.856,19.201,46.901,18.262,46.966,17.041
	 M44.593,11.943c0.116-1.107-0.684-2.093-1.787-2.209c-1.099-0.115-2.092,0.681-2.209,1.789c-0.115,1.102,0.69,2.092,1.789,2.208
	C43.49,13.847,44.476,13.046,44.593,11.943 M40.766,7.526c0.14-0.884-0.462-1.704-1.337-1.844c-0.881-0.138-1.705,0.456-1.846,1.34
	c-0.14,0.879,0.46,1.706,1.34,1.845C39.801,9.006,40.628,8.404,40.766,7.526 M36.017,4.125c0.155-0.723-0.306-1.424-1.023-1.575
	c-0.72-0.153-1.425,0.299-1.577,1.02c-0.152,0.72,0.305,1.425,1.024,1.579C35.159,5.301,35.865,4.842,36.017,4.125 M45.479,24.91
	c-1.33,0-2.408-1.08-2.408-2.412c0-1.337,1.078-2.407,2.412-2.407c1.328,0,2.408,1.07,2.408,2.41
	C47.891,23.83,46.811,24.91,45.479,24.91 M29.399,28.035c0.402-0.208,0.551-0.719,0.332-1.119c-0.221-0.401-0.721-0.557-1.121-0.336
	c-0.405,0.219-0.551,0.723-0.335,1.125C28.488,28.107,28.993,28.258,29.399,28.035 M30.587,26.163
	c0.366-0.197,0.493-0.64,0.308-1.001c-0.195-0.356-0.641-0.494-1.002-0.299c-0.359,0.189-0.491,0.646-0.301,1.004
	C29.789,26.221,30.235,26.354,30.587,26.163 M31.177,23.99c0.314-0.172,0.427-0.563,0.255-0.875
	c-0.166-0.314-0.555-0.428-0.868-0.261c-0.316,0.173-0.428,0.56-0.266,0.879C30.464,24.041,30.868,24.156,31.177,23.99
	 M31.074,21.733c0.271-0.156,0.375-0.494,0.233-0.758c-0.147-0.27-0.484-0.367-0.748-0.222c-0.272,0.141-0.375,0.482-0.227,0.751
	C30.472,21.772,30.814,21.871,31.074,21.733 M25.936,28.967c-0.219-0.402-0.719-0.551-1.126-0.336
	c-0.405,0.213-0.545,0.717-0.326,1.123c0.211,0.4,0.713,0.559,1.116,0.333C26.008,29.875,26.151,29.368,25.936,28.967
	 M23.676,29.059c-0.19-0.357-0.642-0.485-1.004-0.299c-0.36,0.193-0.486,0.644-0.298,0.998c0.196,0.361,0.643,0.494,1,0.302
	C23.738,29.872,23.87,29.42,23.676,29.059 M21.502,28.476c-0.174-0.31-0.563-0.43-0.873-0.257c-0.319,0.174-0.432,0.56-0.26,0.872
	c0.163,0.313,0.557,0.434,0.869,0.265C21.552,29.18,21.669,28.785,21.502,28.476 M19.622,27.281
	c-0.143-0.266-0.479-0.361-0.746-0.222c-0.27,0.14-0.369,0.481-0.226,0.746c0.142,0.271,0.478,0.37,0.746,0.22
	C19.664,27.889,19.765,27.552,19.622,27.281 M28.094,28.193c-0.248-0.461-0.816-0.638-1.278-0.383
	c-0.455,0.242-0.63,0.813-0.377,1.271c0.247,0.455,0.818,0.621,1.276,0.381C28.169,29.212,28.339,28.639,28.094,28.193
	 M29.688,19.401c0.119,0.224,0.399,0.305,0.618,0.185c0.227-0.12,0.311-0.395,0.188-0.62c-0.122-0.228-0.396-0.312-0.626-0.196
	C29.654,18.895,29.564,19.181,29.688,19.401 M21.968,16.022c0.215,0.409,0.723,0.554,1.125,0.341
	c0.402-0.22,0.549-0.723,0.335-1.127c-0.214-0.401-0.724-0.555-1.126-0.335C21.898,15.118,21.757,15.623,21.968,16.022
	 M24.233,15.933c0.188,0.356,0.635,0.49,0.991,0.295c0.364-0.196,0.492-0.64,0.302-0.998c-0.188-0.356-0.637-0.494-0.996-0.295
	C24.169,15.127,24.043,15.572,24.233,15.933 M26.401,16.514c0.169,0.313,0.569,0.428,0.872,0.258
	c0.321-0.171,0.435-0.562,0.264-0.874c-0.165-0.313-0.562-0.429-0.869-0.265C26.352,15.808,26.233,16.203,26.401,16.514
	 M28.278,17.708c0.145,0.268,0.479,0.366,0.755,0.229c0.266-0.153,0.37-0.486,0.225-0.755c-0.148-0.269-0.482-0.373-0.749-0.224
	C28.233,17.108,28.135,17.442,28.278,17.708 M17.594,25.404c-0.227,0.119-0.308,0.398-0.187,0.629
	c0.121,0.221,0.397,0.305,0.627,0.188c0.222-0.127,0.306-0.404,0.183-0.63C18.095,25.371,17.815,25.283,17.594,25.404 M18.51,16.948
	c-0.409,0.222-0.559,0.717-0.339,1.128c0.219,0.399,0.715,0.552,1.117,0.334c0.411-0.217,0.561-0.724,0.343-1.121
	C19.418,16.886,18.91,16.727,18.51,16.948 M17.314,18.83c-0.359,0.193-0.491,0.643-0.304,0.997c0.197,0.356,0.644,0.494,1,0.299
	c0.359-0.191,0.496-0.641,0.303-1C18.114,18.771,17.671,18.638,17.314,18.83 M16.728,21.004c-0.311,0.166-0.426,0.559-0.259,0.869
	c0.173,0.318,0.563,0.431,0.876,0.264c0.312-0.17,0.43-0.568,0.261-0.875C17.436,20.947,17.047,20.831,16.728,21.004 M16.822,23.265
	c-0.266,0.147-0.367,0.485-0.222,0.751c0.147,0.272,0.483,0.366,0.747,0.218c0.27-0.136,0.378-0.479,0.226-0.747
	C17.424,23.223,17.095,23.119,16.822,23.265 M21.464,15.913c0.244,0.454,0.079,1.024-0.377,1.271
	c-0.463,0.248-1.029,0.071-1.276-0.384c-0.25-0.454-0.077-1.025,0.378-1.271C20.645,15.282,21.22,15.453,21.464,15.913
	 M23.927,33.076c0.561,0.168,1.146-0.152,1.306-0.708c0.161-0.56-0.151-1.146-0.71-1.309c-0.563-0.165-1.146,0.155-1.312,0.716
	C23.049,32.328,23.37,32.91,23.927,33.076 M26.9,32.413c0.501,0.146,1.018-0.136,1.165-0.635c0.146-0.493-0.135-1.013-0.635-1.159
	c-0.496-0.15-1.021,0.138-1.165,0.633C26.12,31.75,26.408,32.268,26.9,32.413 M29.588,30.785c0.389,0.117,0.798-0.107,0.911-0.494
	c0.119-0.395-0.106-0.805-0.495-0.918c-0.393-0.119-0.802,0.11-0.92,0.499C28.972,30.26,29.199,30.67,29.588,30.785 M31.68,28.477
	c0.321,0.093,0.653-0.088,0.746-0.403c0.091-0.313-0.089-0.649-0.405-0.743c-0.313-0.09-0.647,0.09-0.741,0.406
	C31.189,28.053,31.369,28.387,31.68,28.477 M19.559,30.699c0.161-0.553-0.156-1.145-0.718-1.307
	c-0.56-0.164-1.139,0.154-1.303,0.717c-0.163,0.553,0.15,1.138,0.712,1.303C18.81,31.573,19.394,31.254,19.559,30.699
	 M17.273,28.611c0.145-0.496-0.145-1.021-0.641-1.168c-0.496-0.145-1.01,0.143-1.16,0.639c-0.146,0.495,0.136,1.014,0.634,1.161
	C16.608,29.393,17.123,29.107,17.273,28.611 M15.645,25.922c0.115-0.391-0.11-0.799-0.497-0.907
	c-0.396-0.119-0.806,0.104-0.914,0.496c-0.11,0.389,0.102,0.8,0.497,0.915C15.119,26.543,15.53,26.316,15.645,25.922 M14.954,22.941
	c0.094-0.315-0.085-0.646-0.402-0.743c-0.315-0.093-0.646,0.092-0.744,0.407c-0.096,0.314,0.092,0.643,0.406,0.736
	C14.528,23.438,14.859,23.26,14.954,22.941 M22.416,32.027c0.188-0.645-0.176-1.318-0.823-1.507c-0.643-0.187-1.314,0.179-1.5,0.82
	c-0.185,0.647,0.174,1.315,0.821,1.505C21.555,33.031,22.231,32.662,22.416,32.027 M32.704,25.074
	c-0.064,0.235,0.067,0.485,0.3,0.553c0.24,0.07,0.485-0.064,0.554-0.304c0.071-0.235-0.063-0.483-0.301-0.553
	C33.024,24.703,32.774,24.838,32.704,25.074 M28.344,14.307c-0.167,0.557,0.156,1.142,0.713,1.307
	c0.561,0.164,1.145-0.161,1.308-0.717c0.167-0.556-0.152-1.143-0.71-1.306C29.093,13.426,28.51,13.75,28.344,14.307 M30.632,16.392
	c-0.147,0.503,0.139,1.019,0.633,1.165c0.497,0.146,1.015-0.143,1.162-0.638c0.148-0.493-0.135-1.013-0.635-1.158
	C31.299,15.616,30.782,15.901,30.632,16.392 M32.257,19.077c-0.12,0.396,0.111,0.805,0.5,0.919c0.394,0.115,0.8-0.109,0.915-0.5
	s-0.107-0.8-0.498-0.913C32.783,18.467,32.368,18.689,32.257,19.077 M32.947,22.062c-0.096,0.313,0.085,0.648,0.406,0.74
	c0.315,0.094,0.646-0.089,0.739-0.406c0.092-0.311-0.086-0.645-0.403-0.739C33.373,21.565,33.035,21.747,32.947,22.062
	 M14.891,19.378c-0.234-0.07-0.482,0.065-0.549,0.3c-0.069,0.237,0.062,0.489,0.299,0.558c0.239,0.068,0.485-0.069,0.554-0.305
	C15.264,19.694,15.132,19.448,14.891,19.378 M23.976,11.926c-0.563-0.169-1.141,0.155-1.309,0.711
	c-0.165,0.559,0.151,1.141,0.711,1.308c0.56,0.165,1.142-0.158,1.308-0.711C24.854,12.676,24.534,12.087,23.976,11.926
	 M21.002,12.591c-0.5-0.144-1.018,0.141-1.165,0.632c-0.146,0.496,0.142,1.016,0.638,1.163c0.495,0.146,1.018-0.134,1.161-0.634
	C21.776,13.258,21.492,12.737,21.002,12.591 M18.314,14.217c-0.394-0.116-0.799,0.111-0.913,0.5
	c-0.114,0.393,0.106,0.799,0.499,0.915c0.391,0.115,0.8-0.111,0.916-0.5C18.929,14.743,18.706,14.333,18.314,14.217 M16.218,16.522
	c-0.316-0.085-0.648,0.091-0.742,0.409c-0.094,0.314,0.09,0.645,0.405,0.736c0.316,0.092,0.645-0.086,0.739-0.401
	C16.719,16.951,16.532,16.62,16.218,16.522 M27.806,13.668c-0.187,0.636-0.857,1.002-1.499,0.813
	c-0.649-0.191-1.005-0.859-0.818-1.502c0.186-0.639,0.856-1.009,1.501-0.822C27.635,12.346,28.002,13.021,27.806,13.668
	 M17.579,35.02c0.543,0.512,1.399,0.484,1.906-0.057c0.509-0.545,0.49-1.398-0.058-1.91c-0.543-0.511-1.399-0.483-1.908,0.061
	C17.01,33.649,17.033,34.506,17.579,35.02 M21.51,36.021c0.487,0.46,1.242,0.438,1.695-0.045c0.457-0.481,0.437-1.243-0.047-1.698
	c-0.482-0.457-1.246-0.43-1.701,0.049C21.003,34.809,21.025,35.573,21.51,36.021 M25.675,35.721
	c0.381,0.359,0.979,0.336,1.336-0.041s0.344-0.977-0.038-1.334c-0.384-0.359-0.98-0.34-1.34,0.041
	C25.278,34.764,25.296,35.363,25.675,35.721 M29.554,34.246c0.311,0.291,0.796,0.275,1.083-0.033c0.29-0.304,0.276-0.787-0.033-1.08
	c-0.307-0.289-0.791-0.275-1.08,0.031C29.233,33.473,29.248,33.958,29.554,34.246 M13.743,29.557c0.511-0.543,0.485-1.4-0.057-1.91
	c-0.545-0.518-1.397-0.48-1.906,0.059c-0.512,0.539-0.493,1.393,0.052,1.909C12.379,30.123,13.235,30.096,13.743,29.557
	 M12.291,25.695c0.456-0.48,0.434-1.242-0.051-1.702c-0.483-0.456-1.241-0.428-1.699,0.052c-0.451,0.48-0.431,1.246,0.052,1.699
	C11.078,26.201,11.837,26.177,12.291,25.695 M11.988,21.532c0.357-0.379,0.336-0.981-0.04-1.337
	c-0.385-0.361-0.983-0.341-1.338,0.041c-0.353,0.383-0.342,0.974,0.039,1.334C11.028,21.929,11.629,21.907,11.988,21.532
	 M12.972,17.576c0.285-0.308,0.274-0.792-0.034-1.082c-0.308-0.292-0.79-0.273-1.08,0.029c-0.294,0.306-0.277,0.79,0.033,1.083
	C12.197,17.893,12.68,17.88,12.972,17.576 M16.336,32.851c0.589-0.626,0.559-1.604-0.065-2.198c-0.629-0.59-1.61-0.557-2.196,0.066
	c-0.586,0.631-0.559,1.604,0.067,2.197C14.765,33.504,15.749,33.477,16.336,32.851 M32.82,30.855
	c-0.215,0.229-0.203,0.592,0.025,0.808c0.231,0.212,0.59,0.204,0.805-0.03c0.218-0.227,0.209-0.588-0.024-0.801
	C33.402,30.613,33.035,30.625,32.82,30.855 M34.155,15.444c-0.511,0.542-0.487,1.397,0.06,1.909
	c0.543,0.514,1.398,0.482,1.907-0.058c0.514-0.545,0.488-1.394-0.059-1.91C35.525,14.875,34.669,14.903,34.155,15.444
	 M35.609,19.304c-0.456,0.482-0.433,1.243,0.053,1.696c0.481,0.459,1.242,0.431,1.696-0.051c0.457-0.479,0.433-1.241-0.052-1.696
	C36.823,18.799,36.063,18.821,35.609,19.304 M35.91,23.469c-0.354,0.381-0.333,0.979,0.044,1.334
	c0.386,0.361,0.978,0.34,1.337-0.039c0.357-0.379,0.344-0.976-0.042-1.336C36.872,23.072,36.27,23.09,35.91,23.469 M34.929,27.424
	c-0.29,0.307-0.276,0.793,0.031,1.086c0.311,0.289,0.796,0.273,1.086-0.037c0.287-0.306,0.275-0.791-0.032-1.084
	C35.703,27.102,35.219,27.115,34.929,27.424 M15.055,13.338c-0.233-0.213-0.593-0.204-0.807,0.024
	c-0.219,0.23-0.207,0.59,0.021,0.806c0.233,0.219,0.594,0.208,0.807-0.022C15.294,13.915,15.284,13.556,15.055,13.338 M30.327,9.98
	c-0.552-0.518-1.399-0.486-1.91,0.055c-0.512,0.542-0.489,1.394,0.054,1.91c0.542,0.511,1.402,0.485,1.911-0.057
	C30.891,11.348,30.869,10.491,30.327,9.98 M26.389,8.973c-0.484-0.455-1.241-0.429-1.698,0.049
	c-0.452,0.483-0.431,1.244,0.055,1.699c0.482,0.456,1.243,0.432,1.694-0.049C26.895,10.186,26.869,9.429,26.389,8.973 M22.226,9.277
	c-0.384-0.357-0.979-0.336-1.336,0.041c-0.357,0.381-0.341,0.977,0.041,1.339c0.377,0.355,0.978,0.336,1.337-0.043
	C22.623,10.236,22.605,9.634,22.226,9.277 M18.345,10.753c-0.311-0.289-0.795-0.275-1.084,0.031
	c-0.289,0.309-0.274,0.788,0.031,1.082c0.311,0.289,0.794,0.275,1.084-0.033C18.667,11.528,18.65,11.042,18.345,10.753
	 M33.824,14.283c-0.586,0.619-1.571,0.651-2.195,0.06c-0.627-0.591-0.65-1.573-0.061-2.195c0.586-0.624,1.566-0.656,2.193-0.067
	C34.385,12.67,34.414,13.652,33.824,14.283"/>
</svg>
