<?xml version="1.0" encoding="utf-8"?>
<!-- Generator: Adobe Illustrator 16.0.0, SVG Export Plug-In . SVG Version: 6.00 Build 0)  -->
<!DOCTYPE svg PUBLIC "-//W3C//DTD SVG 1.1//EN" "http://www.w3.org/Graphics/SVG/1.1/DTD/svg11.dtd">
<svg version="1.1" id="Layer_1" xmlns="http://www.w3.org/2000/svg" xmlns:xlink="http://www.w3.org/1999/xlink" x="0px" y="0px"
	 width="100px" height="100px" viewBox="0 0 100 100" enable-background="new 0 0 100 100" xml:space="preserve">
<g>
	<path fill-rule="evenodd" clip-rule="evenodd" fill="#F7942E" d="M0,100C0,66.667,0,33.333,0,0c33.333,0,66.667,0,100,0
		c0,33.333,0,66.667,0,100C66.667,100,33.333,100,0,100z M37.102,70.836c3.567,8.287,11.96,14.003,20.166,13.729
		c5.07-0.169,7.821-3.439,7.079-8.39c-0.067-0.445-0.009-0.909-0.009-1.388c9.661,1.608,17.891-0.5,23.856-8.368
		c5.723-7.543,1.733-17.474-7.559-19.097c-2.803-0.489-5.697-0.451-8.015-0.616c-0.716-3.043-0.821-6.235-2.174-8.76
		c-5.626-10.516-14.255-17.506-26.034-20.043c-2.387-0.514-5.409-0.342-7.512,0.734c-2.082,1.065-3.373,3.675-4.611,5.135
		c-4.128-2.519-8.456-5.885-13.333-7.954c-6.136-2.601-10.067,1.201-8.563,7.722c2.047,8.88,7.64,15.558,13.943,21.728
		c0.759,0.743,1.917,1.08,2.892,1.604c-0.321,0.326-0.641,0.652-0.962,0.977c-0.72,0.103-1.447,0.172-2.16,0.313
		c-6.593,1.308-9.532,8.158-5.215,13.289c2.213,2.629,5.579,4.607,8.81,5.961c2.644,1.108,5.86,0.855,8.9,1.215
		c0.168,0.676,0.368,1.472,0.549,2.253c-1.359,0.183-3.191-0.127-3.988,0.64c-2.489,2.396-4.587,5.2-6.727,7.717
		c2.394,0.063,4.435-1.304,6.184-3.285C34.119,74.25,35.608,72.541,37.102,70.836z M23.263,80.684
		c0.298-5.624,2.75-9.231,9.478-9.504c-4.945-2.445-9.728-1.086-11.177,2.999c-1.11,3.127-1.448,6.527-2.111,9.717
		c3.945,0,7.6,0.338,11.145-0.143c1.771-0.241,3.795-1.638,4.887-3.117c1.451-1.965,0.895-3.96-0.595-5.678
		C32.632,80.636,30.466,81.736,23.263,80.684z"/>
	<path fill-rule="evenodd" clip-rule="evenodd" fill="#FFFFFF" d="M37.169,70.895c-0.199-0.797-0.398-1.593-0.567-2.269
		c-3.04-0.359-6.256-0.106-8.9-1.215c-3.23-1.354-6.596-3.332-8.81-5.961c-4.317-5.131-1.378-11.98,5.215-13.289
		c0.712-0.141,1.439-0.209,2.16-0.313c0.321-0.325,0.641-0.651,0.962-0.977c-0.974-0.524-2.133-0.861-2.892-1.604
		c-6.304-6.169-11.896-12.847-13.943-21.728c-1.503-6.521,2.427-10.322,8.563-7.722c4.878,2.069,9.206,5.435,13.333,7.954
		c1.238-1.46,2.529-4.07,4.611-5.135c2.104-1.077,5.125-1.249,7.512-0.734c11.779,2.537,20.408,9.527,26.034,20.043
		c1.353,2.525,1.458,5.716,2.174,8.76c2.317,0.165,5.212,0.126,8.015,0.616c9.292,1.623,13.281,11.554,7.559,19.097
		c-5.966,7.868-14.195,9.977-23.856,8.368c0,0.479-0.059,0.942,0.009,1.388c0.742,4.95-2.009,8.221-7.079,8.39
		c-8.205,0.274-16.599-5.441-20.166-13.729L37.169,70.895z M63.412,53.821c4.982-7.623,2.692-13.857-2.176-19.61
		c-4.576-5.408-10.473-8.797-17.315-10.545c-0.893-0.228-1.853-0.304-2.776-0.278c-2.581,0.07-4.236,1.396-4.172,4.024
		c0.054,2.258,0.598,4.504,0.924,6.755c0.088,0.607,0.171,1.214,0.312,2.216c-3.578-3.164-6.623-6.139-9.968-8.726
		c-2.697-2.085-5.642-3.929-8.689-5.454c-2.435-1.219-3.598-0.163-3.004,2.545c0.418,1.905,1.123,3.811,2.046,5.53
		c4.106,7.64,10.003,13.772,16.612,19.276c0.753,0.626,1.487,1.277,2.229,1.917c-1.118,0.492-1.974,0.329-2.834,0.282
		c-2.792-0.146-5.623-0.587-8.373-0.296c-4.591,0.486-6.294,4.29-3.86,8.221c1.995,3.221,5.037,5.075,8.791,5.144
		c3.041,0.054,6.092-0.506,8.83-0.765c0.31,2.393,0.007,5.206,1.077,7.33c2.814,5.595,7.781,8.581,14.006,9.048
		c4.363,0.326,6.89-3.237,5.57-7.442c-0.345-1.099-0.794-2.165-1.27-3.447c9.383,2.144,13.269,1.909,18.829-1.015
		c5.286-2.778,7.761-7.236,6.402-11.532c-1.32-4.177-6.09-6.354-12.021-5.313C69.749,52.185,66.972,52.981,63.412,53.821z"/>
	<path fill-rule="evenodd" clip-rule="evenodd" fill="#FFFFFF" d="M23.263,80.684c7.204,1.053,9.369-0.048,11.626-5.726
		c1.489,1.718,2.046,3.713,0.595,5.678c-1.092,1.479-3.117,2.876-4.887,3.117c-3.544,0.48-7.199,0.143-11.145,0.143
		c0.663-3.189,1.001-6.59,2.111-9.717c1.45-4.085,6.232-5.444,11.177-2.999C26.012,71.452,23.561,75.06,23.263,80.684z"/>
	<path fill-rule="evenodd" clip-rule="evenodd" fill="#FFFFFF" d="M37.102,70.836c-1.494,1.705-2.983,3.414-4.482,5.114
		c-1.749,1.981-3.79,3.349-6.184,3.285c2.14-2.517,4.238-5.32,6.727-7.717c0.797-0.767,2.629-0.457,3.998-0.632
		C37.169,70.895,37.102,70.836,37.102,70.836z"/>
	<path fill-rule="evenodd" clip-rule="evenodd" fill="#F7942E" d="M63.412,53.821c3.56-0.84,6.337-1.637,9.168-2.135
		c5.932-1.041,10.701,1.137,12.021,5.313c1.358,4.296-1.116,8.754-6.402,11.532c-5.561,2.924-9.446,3.158-18.829,1.015
		c0.476,1.282,0.925,2.349,1.27,3.447c1.319,4.205-1.207,7.769-5.57,7.442c-6.226-0.467-11.192-3.453-14.006-9.048
		c-1.069-2.124-0.767-4.938-1.077-7.33c-2.737,0.259-5.789,0.818-8.83,0.765c-3.754-0.068-6.795-1.923-8.791-5.144
		c-2.435-3.931-0.731-7.734,3.86-8.221c2.75-0.291,5.581,0.149,8.373,0.296c0.861,0.047,1.716,0.21,2.834-0.282
		c-0.742-0.64-1.476-1.291-2.229-1.917C28.597,44.051,22.7,37.919,18.593,30.279c-0.924-1.719-1.628-3.625-2.046-5.53
		c-0.594-2.708,0.569-3.765,3.004-2.545c3.048,1.525,5.993,3.369,8.689,5.454c3.345,2.587,6.39,5.562,9.968,8.726
		c-0.141-1.002-0.224-1.609-0.312-2.216c-0.326-2.251-0.87-4.497-0.924-6.755c-0.063-2.628,1.592-3.954,4.172-4.024
		c0.923-0.025,1.883,0.05,2.776,0.278c6.842,1.748,12.739,5.137,17.315,10.545C66.104,39.964,68.395,46.198,63.412,53.821z
		 M56.341,60.012c-0.109-4.155-6.224-11.164-10.386-11.904c-2.491-0.443-3.846,0.876-3.695,3.595
		c0.233,4.205,5.784,10.658,9.905,11.517C54.666,63.741,56.404,62.406,56.341,60.012z"/>
	<path fill-rule="evenodd" clip-rule="evenodd" fill="#FFFFFF" d="M56.341,60.012c0.063,2.395-1.675,3.729-4.176,3.208
		c-4.121-0.858-9.671-7.312-9.905-11.517c-0.151-2.719,1.204-4.039,3.695-3.595C50.117,48.848,56.231,55.856,56.341,60.012z"/>
</g>
</svg>
