<?xml version="1.0" encoding="UTF-8" standalone="no"?>
<!-- Generator: Adobe Illustrator 16.0.0, SVG Export Plug-In . SVG Version: 6.00 Build 0)  -->
<!DOCTYPE svg  PUBLIC '-//W3C//DTD SVG 1.1//EN'  'http://www.w3.org/Graphics/SVG/1.1/DTD/svg11.dtd'>
<svg id="Layer_1" xmlns="http://www.w3.org/2000/svg" xml:space="preserve" height="100px" viewBox="0 0 100 100" width="100px" version="1.1" y="0px" x="0px" xmlns:xlink="http://www.w3.org/1999/xlink" enable-background="new 0 0 100 100">
<g clip-rule="evenodd" fill-rule="evenodd">
	<path fill="#F7942E" d="m0 100v-100h100v100h-100zm37.102-29.164c3.567 8.287 11.96 14.003 20.166 13.729 5.07-0.169 7.821-3.439 7.079-8.39-0.067-0.445-0.009-0.909-0.009-1.388 9.661 1.608 17.891-0.5 23.856-8.368 5.723-7.543 1.733-17.474-7.559-19.097-2.803-0.489-5.697-0.451-8.015-0.616-0.716-3.043-0.821-6.235-2.174-8.76-5.626-10.516-14.255-17.506-26.034-20.043-2.387-0.514-5.409-0.342-7.512 0.734-2.082 1.065-3.373 3.675-4.611 5.135-4.128-2.519-8.456-5.885-13.333-7.954-6.136-2.601-10.067 1.201-8.563 7.722 2.047 8.88 7.64 15.558 13.943 21.728 0.759 0.743 1.917 1.08 2.892 1.604-0.321 0.326-0.641 0.652-0.962 0.977-0.72 0.103-1.447 0.172-2.16 0.313-6.593 1.308-9.532 8.158-5.215 13.289 2.213 2.629 5.579 4.607 8.81 5.961 2.644 1.108 5.86 0.855 8.9 1.215 0.168 0.676 0.368 1.472 0.549 2.253-1.359 0.183-3.191-0.127-3.988 0.64-2.489 2.396-4.587 5.2-6.727 7.717 2.394 0.063 4.435-1.304 6.184-3.285 1.5-1.702 2.989-3.411 4.483-5.116zm-13.839 9.848c0.298-5.624 2.75-9.231 9.478-9.504-4.945-2.445-9.728-1.086-11.177 2.999-1.11 3.127-1.448 6.527-2.111 9.717 3.945 0 7.6 0.338 11.145-0.143 1.771-0.241 3.795-1.638 4.887-3.117 1.451-1.965 0.895-3.96-0.595-5.678-2.258 5.678-4.424 6.778-11.627 5.726z"/>
	<path fill="#fff" d="m37.169 70.895c-0.199-0.797-0.398-1.593-0.567-2.269-3.04-0.359-6.256-0.106-8.9-1.215-3.23-1.354-6.596-3.332-8.81-5.961-4.317-5.131-1.378-11.98 5.215-13.289 0.712-0.141 1.439-0.209 2.16-0.313 0.321-0.325 0.641-0.651 0.962-0.977-0.974-0.524-2.133-0.861-2.892-1.604-6.304-6.169-11.896-12.847-13.943-21.728-1.503-6.521 2.427-10.322 8.563-7.722 4.878 2.069 9.206 5.435 13.333 7.954 1.238-1.46 2.529-4.07 4.611-5.135 2.104-1.077 5.125-1.249 7.512-0.734 11.779 2.537 20.408 9.527 26.034 20.043 1.353 2.525 1.458 5.716 2.174 8.76 2.317 0.165 5.212 0.126 8.015 0.616 9.292 1.623 13.281 11.554 7.559 19.097-5.966 7.868-14.195 9.977-23.856 8.368 0 0.479-0.059 0.942 0.009 1.388 0.742 4.95-2.009 8.221-7.079 8.39-8.205 0.274-16.599-5.441-20.166-13.729l0.066 0.06zm26.243-17.074c4.982-7.623 2.692-13.857-2.176-19.61-4.576-5.408-10.473-8.797-17.315-10.545-0.893-0.228-1.853-0.304-2.776-0.278-2.581 0.07-4.236 1.396-4.172 4.024 0.054 2.258 0.598 4.504 0.924 6.755 0.088 0.607 0.171 1.214 0.312 2.216-3.578-3.164-6.623-6.139-9.968-8.726-2.697-2.085-5.642-3.929-8.689-5.454-2.435-1.219-3.598-0.163-3.004 2.545 0.418 1.905 1.123 3.811 2.046 5.53 4.106 7.64 10.003 13.772 16.612 19.276 0.753 0.626 1.487 1.277 2.229 1.917-1.118 0.492-1.974 0.329-2.834 0.282-2.792-0.146-5.623-0.587-8.373-0.296-4.591 0.486-6.294 4.29-3.86 8.221 1.995 3.221 5.037 5.075 8.791 5.144 3.041 0.054 6.092-0.506 8.83-0.765 0.31 2.393 0.007 5.206 1.077 7.33 2.814 5.595 7.781 8.581 14.006 9.048 4.363 0.326 6.89-3.237 5.57-7.442-0.345-1.099-0.794-2.165-1.27-3.447 9.383 2.144 13.269 1.909 18.829-1.015 5.286-2.778 7.761-7.236 6.402-11.532-1.32-4.177-6.09-6.354-12.021-5.313-2.833 0.499-5.61 1.295-9.17 2.135z"/>
	<path fill="#fff" d="m23.263 80.684c7.204 1.053 9.369-0.048 11.626-5.726 1.489 1.718 2.046 3.713 0.595 5.678-1.092 1.479-3.117 2.876-4.887 3.117-3.544 0.48-7.199 0.143-11.145 0.143 0.663-3.189 1.001-6.59 2.111-9.717 1.45-4.085 6.232-5.444 11.177-2.999-6.728 0.272-9.179 3.88-9.477 9.504z"/>
	<path fill="#fff" d="m37.102 70.836c-1.494 1.705-2.983 3.414-4.482 5.114-1.749 1.981-3.79 3.349-6.184 3.285 2.14-2.517 4.238-5.32 6.727-7.717 0.797-0.767 2.629-0.457 3.998-0.632 0.008 0.009-0.059-0.05-0.059-0.05z"/>
	<path fill="#F7942E" d="m63.412 53.821c3.56-0.84 6.337-1.637 9.168-2.135 5.932-1.041 10.701 1.137 12.021 5.313 1.358 4.296-1.116 8.754-6.402 11.532-5.561 2.924-9.446 3.158-18.829 1.015 0.476 1.282 0.925 2.349 1.27 3.447 1.319 4.205-1.207 7.769-5.57 7.442-6.226-0.467-11.192-3.453-14.006-9.048-1.069-2.124-0.767-4.938-1.077-7.33-2.737 0.259-5.789 0.818-8.83 0.765-3.754-0.068-6.795-1.923-8.791-5.144-2.435-3.931-0.731-7.734 3.86-8.221 2.75-0.291 5.581 0.149 8.373 0.296 0.861 0.047 1.716 0.21 2.834-0.282-0.742-0.64-1.476-1.291-2.229-1.917-6.607-5.503-12.504-11.635-16.611-19.275-0.924-1.719-1.628-3.625-2.046-5.53-0.594-2.708 0.569-3.765 3.004-2.545 3.048 1.525 5.993 3.369 8.689 5.454 3.345 2.587 6.39 5.562 9.968 8.726-0.141-1.002-0.224-1.609-0.312-2.216-0.326-2.251-0.87-4.497-0.924-6.755-0.063-2.628 1.592-3.954 4.172-4.024 0.923-0.025 1.883 0.05 2.776 0.278 6.842 1.748 12.739 5.137 17.315 10.545 4.869 5.752 7.16 11.986 2.177 19.609zm-7.071 6.191c-0.109-4.155-6.224-11.164-10.386-11.904-2.491-0.443-3.846 0.876-3.695 3.595 0.233 4.205 5.784 10.658 9.905 11.517 2.501 0.521 4.239-0.814 4.176-3.208z"/>
	<path fill="#fff" d="m56.341 60.012c0.063 2.395-1.675 3.729-4.176 3.208-4.121-0.858-9.671-7.312-9.905-11.517-0.151-2.719 1.204-4.039 3.695-3.595 4.162 0.74 10.276 7.748 10.386 11.904z"/>
</g>
</svg>
