<?xml version="1.0" encoding="utf-8"?>
<!-- Generator: Adobe Illustrator 16.0.0, SVG Export Plug-In . SVG Version: 6.00 Build 0)  -->
<!DOCTYPE svg PUBLIC "-//W3C//DTD SVG 1.1//EN" "http://www.w3.org/Graphics/SVG/1.1/DTD/svg11.dtd">
<svg version="1.1"
	 id="Layer_1" xmlns:rdf="http://www.w3.org/1999/02/22-rdf-syntax-ns#" xmlns:cc="http://creativecommons.org/ns#" xmlns:dc="http://purl.org/dc/elements/1.1/"
	 xmlns="http://www.w3.org/2000/svg" xmlns:xlink="http://www.w3.org/1999/xlink" x="0px" y="0px" width="100px" height="100px"
	 viewBox="-26.056 -27.5 100 100" enable-background="new -26.056 -27.5 100 100" xml:space="preserve">
<path fill="#F57A14" d="M4.312-4.965C3.75-5.675,2.733-5.786,2.022-5.23C1.321-4.67,1.198-3.656,1.752-2.945
	c0.563,0.708,1.585,0.827,2.29,0.271C4.747-3.24,4.87-4.257,4.312-4.965 M20.679-11.102c-0.131-0.892-0.96-1.504-1.851-1.372
	c-0.887,0.13-1.504,0.951-1.375,1.843c0.129,0.893,0.958,1.502,1.847,1.374C20.189-9.391,20.808-10.211,20.679-11.102
	 M28.597,54.262c-0.886,0.13-1.503,0.956-1.374,1.846c0.13,0.894,0.962,1.505,1.846,1.375c0.89-0.131,1.509-0.956,1.377-1.849
	C30.321,54.744,29.492,54.129,28.597,54.262 M43.855,47.684c-0.701,0.561-0.825,1.579-0.267,2.284
	c0.557,0.71,1.583,0.819,2.284,0.269c0.709-0.561,0.827-1.579,0.272-2.29C45.587,47.245,44.564,47.124,43.855,47.684 M-5.77,44.624
	c0.672,1.814,2.668,2.715,4.458,2.047c1.8-0.664,2.721-2.646,2.051-4.458C0.075,40.42-1.919,39.5-3.718,40.17
	C-5.512,40.836-6.432,42.838-5.77,44.624 M0.808,50.489c0.519,1.669,2.276,2.582,3.933,2.061c1.659-0.513,2.59-2.269,2.071-3.934
	c-0.515-1.657-2.286-2.582-3.943-2.064C1.211,47.065,0.288,48.828,0.808,50.489 M9.055,54.47c0.343,1.355,1.714,2.163,3.063,1.822
	c1.354-0.349,2.168-1.713,1.824-3.068c-0.345-1.352-1.72-2.166-3.069-1.819C9.525,51.747,8.71,53.118,9.055,54.47 M17.988,56.417
	c0.223,1.132,1.326,1.863,2.455,1.638c1.126-0.228,1.859-1.324,1.632-2.459c-0.224-1.126-1.324-1.858-2.455-1.631
	C18.495,54.191,17.762,55.293,17.988,56.417 M-7.888,30.496c1.716-0.85,2.419-2.931,1.567-4.646
	c-0.856-1.728-2.929-2.421-4.652-1.567c-1.708,0.847-2.425,2.919-1.569,4.647C-11.69,30.649-9.604,31.347-7.888,30.496
	 M-8.01,21.327c1.514-0.846,2.051-2.77,1.203-4.283c-0.852-1.52-2.77-2.054-4.284-1.199c-1.516,0.846-2.053,2.76-1.203,4.28
	C-11.442,21.635-9.528,22.177-8.01,21.327 M-6.043,12.177c1.179-0.742,1.528-2.307,0.784-3.489
	c-0.747-1.181-2.304-1.522-3.483-0.778c-1.174,0.749-1.53,2.299-0.78,3.48C-8.78,12.572-7.22,12.924-6.043,12.177 M-1.904,4.056
	c0.938-0.668,1.16-1.966,0.496-2.901C-2.08,0.207-3.373-0.007-4.309,0.657c-0.94,0.668-1.169,1.958-0.498,2.907
	C-4.141,4.499-2.842,4.72-1.904,4.056 M-5.524,39.323c1.91-0.822,2.792-3.046,1.965-4.96c-0.827-1.924-3.046-2.793-4.952-1.971
	c-1.914,0.823-2.805,3.036-1.977,4.96C-9.661,39.265-7.434,40.15-5.524,39.323 M36.705,52.08c-0.768,0.329-1.124,1.218-0.793,1.986
	c0.335,0.779,1.223,1.128,1.99,0.793c0.77-0.329,1.128-1.22,0.795-1.992C38.368,52.102,37.475,51.747,36.705,52.08 M55.785,14.508
	c-1.712,0.847-2.415,2.929-1.567,4.644c0.858,1.73,2.933,2.421,4.65,1.566c1.713-0.842,2.424-2.916,1.567-4.644
	C59.586,14.362,57.499,13.657,55.785,14.508 M55.905,23.678c-1.509,0.848-2.054,2.768-1.203,4.288
	c0.857,1.516,2.773,2.047,4.282,1.194c1.516-0.85,2.057-2.758,1.205-4.278C59.335,23.365,57.421,22.825,55.905,23.678
	 M53.944,32.823c-1.176,0.745-1.53,2.304-0.784,3.479c0.746,1.183,2.304,1.528,3.481,0.783c1.175-0.744,1.533-2.298,0.783-3.482
	C56.677,32.432,55.117,32.079,53.944,32.823 M49.802,40.949c-0.94,0.666-1.162,1.967-0.498,2.903
	c0.668,0.944,1.967,1.159,2.909,0.497c0.938-0.662,1.158-1.961,0.49-2.907C52.042,40.507,50.743,40.283,49.802,40.949 M11.989-9.063
	c-0.333-0.774-1.226-1.123-1.996-0.79C9.227-9.524,8.868-8.636,9.201-7.86c0.331,0.765,1.225,1.115,1.993,0.786
	C11.962-7.407,12.32-8.299,11.989-9.063 M53.666,0.373C53-1.435,51.002-2.339,49.209-1.673c-1.796,0.661-2.719,2.649-2.049,4.453
	c0.666,1.799,2.662,2.718,4.452,2.054C53.409,4.171,54.334,2.172,53.666,0.373 M47.092-5.487c-0.52-1.665-2.282-2.586-3.938-2.063
	c-1.653,0.513-2.59,2.274-2.066,3.939c0.515,1.658,2.285,2.584,3.937,2.065C46.686-2.065,47.608-3.832,47.092-5.487 M38.85-9.463
	c-0.349-1.359-1.725-2.167-3.068-1.821c-1.352,0.343-2.168,1.711-1.819,3.069c0.343,1.35,1.72,2.17,3.067,1.818
	C38.376-6.741,39.193-8.117,38.85-9.463 M29.908-11.408c-0.224-1.138-1.318-1.86-2.447-1.636c-1.128,0.226-1.864,1.314-1.636,2.45
	c0.224,1.125,1.322,1.86,2.455,1.633C29.404-9.189,30.133-10.286,29.908-11.408 M56.412,12.614c-1.912,0.827-4.136-0.06-4.962-1.976
	c-0.829-1.922,0.059-4.132,1.975-4.961c1.912-0.822,4.127,0.051,4.958,1.975C59.21,9.563,58.326,11.789,56.412,12.614
	 M14.786-19.763c-0.297-1.115-1.441-1.768-2.556-1.468c-1.109,0.298-1.775,1.434-1.475,2.547c0.3,1.119,1.448,1.773,2.552,1.476
	C14.422-17.506,15.084-18.648,14.786-19.763 M37.148-18.68c0.295-1.116-0.373-2.255-1.483-2.551
	c-1.108-0.295-2.251,0.353-2.549,1.472c-0.298,1.115,0.364,2.257,1.474,2.552C35.702-16.911,36.848-17.567,37.148-18.68
	 M13.305,62.208c-1.106-0.294-2.25,0.364-2.552,1.477c-0.294,1.114,0.368,2.253,1.475,2.551c1.117,0.298,2.263-0.356,2.556-1.474
	C15.084,63.649,14.422,62.505,13.305,62.208 M34.588,62.208c-1.109,0.297-1.771,1.441-1.474,2.554
	c0.296,1.117,1.448,1.771,2.551,1.47c1.118-0.294,1.778-1.435,1.479-2.551C36.848,62.572,35.7,61.914,34.588,62.208 M-22.223,33.448
	c-0.127,2.467,1.763,4.539,4.202,4.666c2.457,0.128,4.547-1.733,4.676-4.201c0.127-2.451-1.755-4.541-4.202-4.667
	C-19.998,29.117-22.096,31.002-22.223,33.448 M-17.465,43.676c-0.233,2.226,1.369,4.192,3.584,4.428
	c2.21,0.23,4.196-1.359,4.427-3.585c0.233-2.21-1.377-4.196-3.589-4.428C-15.254,39.856-17.232,41.467-17.465,43.676 M-9.782,52.538
	c-0.28,1.771,0.923,3.417,2.686,3.698c1.763,0.28,3.418-0.916,3.7-2.684c0.278-1.763-0.925-3.42-2.689-3.698
	C-7.849,49.576-9.504,50.779-9.782,52.538 M-0.262,59.359c-0.308,1.449,0.617,2.864,2.051,3.17c1.442,0.305,2.86-0.607,3.168-2.058
	C5.26,59.034,4.34,57.612,2.9,57.307C1.462,57.001,0.042,57.926-0.262,59.359 M-17.552,15.754c2.451-0.126,4.329-2.219,4.206-4.672
	c-0.129-2.465-2.22-4.332-4.678-4.201c-2.437,0.128-4.331,2.203-4.2,4.667C-22.096,13.999-19.998,15.883-17.552,15.754
	 M-13.04,4.908c2.214-0.233,3.822-2.216,3.589-4.429c-0.231-2.22-2.217-3.821-4.427-3.588c-2.217,0.233-3.82,2.208-3.584,4.431
	C-17.234,3.534-15.256,5.143-13.04,4.908 M-6.088-4.849C-4.323-5.128-3.122-6.787-3.4-8.552c-0.28-1.771-1.936-2.962-3.705-2.682
	c-1.757,0.276-2.961,1.922-2.68,3.693C-9.506-5.778-7.851-4.568-6.088-4.849 M2.9-12.307c1.442-0.307,2.363-1.721,2.057-3.168
	c-0.308-1.445-1.722-2.354-3.164-2.048c-1.439,0.306-2.364,1.713-2.057,3.162C0.042-12.921,1.462-12,2.9-12.307 M-19.246,27.335
	c2.664,0,4.827-2.167,4.827-4.839c0-2.682-2.163-4.829-4.827-4.829c-2.662,0-4.837,2.147-4.837,4.834
	C-24.083,25.168-21.908,27.335-19.246,27.335 M23.948,63.755c-1.069,0-1.941,0.866-1.941,1.943c0,1.073,0.872,1.936,1.941,1.936
	c1.074,0,1.945-0.862,1.945-1.939C25.893,64.621,25.022,63.755,23.948,63.755 M65.442,29.246c-2.438,0.126-4.323,2.216-4.195,4.667
	c0.129,2.466,2.217,4.329,4.67,4.203c2.442-0.129,4.331-2.201,4.2-4.668C69.991,31.002,67.895,29.117,65.442,29.246 M60.931,40.091
	c-2.208,0.231-3.818,2.218-3.587,4.428c0.233,2.226,2.222,3.815,4.431,3.589c2.214-0.239,3.816-2.206,3.583-4.432
	C65.127,41.463,63.146,39.856,60.931,40.091 M53.989,49.854c-1.766,0.278-2.968,1.936-2.688,3.698
	c0.279,1.768,1.935,2.964,3.7,2.684c1.759-0.281,2.964-1.923,2.686-3.698C57.405,50.775,55.748,49.576,53.989,49.854 M44.997,57.307
	c-1.443,0.306-2.364,1.728-2.059,3.165c0.31,1.45,1.726,2.366,3.168,2.058c1.439-0.306,2.362-1.721,2.053-3.17
	C47.853,57.926,46.437,57.001,44.997,57.307 M25.893-20.694c0-1.077-0.871-1.939-1.945-1.939c-1.069,0-1.941,0.861-1.941,1.938
	c0,1.077,0.872,1.942,1.941,1.942C25.022-18.752,25.893-19.619,25.893-20.694 M70.121,11.55c0.129-2.465-1.762-4.538-4.204-4.667
	c-2.449-0.13-4.541,1.736-4.67,4.201c-0.128,2.454,1.757,4.543,4.195,4.672C67.895,15.883,69.991,13.999,70.121,11.55 M65.36,1.323
	c0.233-2.22-1.371-4.198-3.583-4.431c-2.205-0.23-4.197,1.366-4.431,3.588c-0.231,2.211,1.383,4.196,3.589,4.429
	C63.148,5.143,65.127,3.536,65.36,1.323 M57.685-7.537c0.28-1.773-0.927-3.418-2.682-3.699c-1.77-0.277-3.421,0.915-3.704,2.688
	c-0.28,1.763,0.922,3.422,2.688,3.701C55.748-4.568,57.407-5.776,57.685-7.537 M48.159-14.359c0.31-1.451-0.615-2.856-2.053-3.16
	c-1.444-0.307-2.858,0.601-3.164,2.046c-0.304,1.445,0.613,2.859,2.055,3.168C46.437-12,47.853-12.921,48.159-14.359 M67.139,27.335
	c-2.668,0-4.831-2.167-4.831-4.839c0-2.682,2.163-4.829,4.839-4.829c2.664,0,4.83,2.147,4.83,4.834
	C71.977,25.168,69.811,27.335,67.139,27.335 M34.884,33.604c0.805-0.418,1.104-1.442,0.666-2.245
	c-0.445-0.804-1.448-1.117-2.249-0.674c-0.813,0.438-1.104,1.449-0.672,2.257C33.055,33.748,34.068,34.05,34.884,33.604
	 M37.265,29.848c0.734-0.396,0.989-1.283,0.619-2.008c-0.392-0.713-1.287-0.991-2.01-0.6c-0.721,0.381-0.985,1.295-0.605,2.014
	C35.665,29.964,36.56,30.229,37.265,29.848 M38.451,25.489c0.628-0.345,0.855-1.128,0.511-1.755
	c-0.333-0.631-1.114-0.859-1.741-0.524c-0.635,0.348-0.858,1.124-0.535,1.763C37.018,25.591,37.83,25.822,38.451,25.489
	 M38.243,20.961c0.545-0.313,0.752-0.991,0.468-1.521c-0.296-0.542-0.972-0.736-1.5-0.445c-0.547,0.283-0.753,0.967-0.457,1.506
	C37.036,21.04,37.721,21.238,38.243,20.961 M27.937,35.472c-0.441-0.807-1.444-1.104-2.259-0.674
	c-0.813,0.428-1.094,1.438-0.654,2.253c0.423,0.804,1.43,1.121,2.239,0.668C28.08,37.294,28.368,36.277,27.937,35.472
	 M23.402,35.656c-0.38-0.715-1.287-0.972-2.014-0.6c-0.721,0.388-0.973,1.293-0.597,2.002c0.394,0.725,1.291,0.991,2.006,0.607
	C23.527,37.288,23.792,36.381,23.402,35.656 M19.041,34.488c-0.349-0.623-1.128-0.863-1.751-0.517
	c-0.639,0.349-0.866,1.124-0.521,1.749c0.327,0.629,1.117,0.872,1.744,0.531C19.143,35.899,19.376,35.107,19.041,34.488
	 M15.27,32.091c-0.286-0.533-0.96-0.725-1.497-0.446c-0.541,0.282-0.74,0.966-0.453,1.496c0.284,0.545,0.958,0.743,1.497,0.443
	C15.355,33.31,15.558,32.636,15.27,32.091 M32.266,33.921c-0.498-0.925-1.638-1.281-2.564-0.769
	c-0.913,0.486-1.264,1.63-0.756,2.549c0.495,0.913,1.64,1.246,2.558,0.764C32.415,35.964,32.756,34.813,32.266,33.921
	 M35.463,16.283c0.239,0.45,0.8,0.612,1.24,0.372c0.455-0.241,0.623-0.792,0.376-1.244c-0.244-0.458-0.793-0.626-1.255-0.393
	C35.394,15.269,35.215,15.843,35.463,16.283 M19.976,9.505c0.433,0.821,1.452,1.112,2.257,0.684c0.807-0.44,1.103-1.45,0.674-2.26
	c-0.431-0.804-1.454-1.113-2.259-0.672C19.837,7.692,19.552,8.705,19.976,9.505 M24.52,9.327c0.376,0.714,1.273,0.982,1.988,0.592
	c0.729-0.393,0.985-1.284,0.605-2.002c-0.378-0.714-1.277-0.991-1.998-0.591C24.391,7.71,24.138,8.603,24.52,9.327 M28.869,10.493
	c0.339,0.628,1.143,0.858,1.75,0.517c0.645-0.343,0.871-1.127,0.528-1.753c-0.331-0.628-1.126-0.86-1.743-0.532
	C28.771,9.076,28.532,9.869,28.869,10.493 M32.635,12.888c0.29,0.538,0.96,0.734,1.514,0.459c0.533-0.306,0.743-0.974,0.451-1.514
	c-0.296-0.54-0.966-0.748-1.503-0.449C32.545,11.684,32.346,12.354,32.635,12.888 M11.204,28.326
	c-0.457,0.238-0.619,0.799-0.376,1.262c0.243,0.442,0.797,0.61,1.258,0.376c0.445-0.255,0.613-0.812,0.366-1.264
	C12.209,28.259,11.646,28.083,11.204,28.326 M13.039,11.362c-0.819,0.446-1.121,1.439-0.68,2.264c0.44,0.8,1.436,1.107,2.241,0.67
	c0.825-0.436,1.126-1.453,0.688-2.249C14.861,11.239,13.843,10.92,13.039,11.362 M10.641,15.138c-0.721,0.387-0.985,1.29-0.611,2
	c0.396,0.714,1.292,0.99,2.006,0.6c0.721-0.383,0.995-1.286,0.609-2.006C12.246,15.02,11.357,14.753,10.641,15.138 M9.466,19.499
	c-0.625,0.333-0.854,1.122-0.519,1.743c0.347,0.638,1.128,0.865,1.757,0.53c0.625-0.342,0.862-1.14,0.523-1.755
	C10.886,19.384,10.105,19.152,9.466,19.499 M9.654,24.036C9.121,24.33,8.918,25.008,9.21,25.54c0.293,0.547,0.967,0.734,1.499,0.439
	c0.541-0.274,0.758-0.962,0.452-1.501C10.861,23.949,10.203,23.742,9.654,24.036 M18.965,9.287c0.49,0.911,0.159,2.054-0.756,2.549
	c-0.928,0.498-2.063,0.142-2.558-0.771c-0.501-0.91-0.155-2.056,0.758-2.55C17.323,8.021,18.477,8.364,18.965,9.287 M23.907,43.715
	c1.125,0.337,2.297-0.306,2.619-1.42c0.323-1.122-0.304-2.298-1.424-2.627c-1.13-0.329-2.3,0.312-2.633,1.438
	C22.144,42.215,22.789,43.382,23.907,43.715 M29.87,42.385c1.006,0.292,2.042-0.271,2.338-1.275
	c0.291-0.987-0.271-2.029-1.273-2.323c-0.995-0.301-2.05,0.276-2.337,1.27C28.305,41.055,28.883,42.093,29.87,42.385 M35.261,39.119
	c0.781,0.235,1.603-0.215,1.827-0.991c0.239-0.791-0.211-1.613-0.993-1.841c-0.787-0.239-1.608,0.22-1.845,1.001
	C34.027,38.065,34.481,38.889,35.261,39.119 M39.46,34.488c0.643,0.188,1.309-0.176,1.494-0.807
	c0.185-0.627-0.178-1.303-0.811-1.491c-0.629-0.18-1.299,0.181-1.487,0.813C38.474,33.639,38.835,34.309,39.46,34.488
	 M15.145,38.947c0.323-1.108-0.313-2.296-1.442-2.621c-1.123-0.329-2.284,0.308-2.613,1.438c-0.327,1.109,0.302,2.282,1.428,2.613
	C13.642,40.698,14.814,40.06,15.145,38.947 M10.559,34.759c0.29-0.995-0.292-2.049-1.287-2.343
	c-0.993-0.292-2.025,0.286-2.325,1.281c-0.294,0.993,0.272,2.033,1.271,2.329C9.225,36.326,10.258,35.754,10.559,34.759
	 M7.294,29.364c0.229-0.784-0.221-1.603-0.997-1.818c-0.795-0.238-1.618,0.208-1.833,0.995c-0.222,0.78,0.204,1.603,0.997,1.834
	C6.238,30.61,7.062,30.155,7.294,29.364 M5.906,23.385c0.188-0.632-0.17-1.296-0.805-1.491c-0.633-0.186-1.297,0.185-1.493,0.817
	c-0.194,0.63,0.184,1.291,0.813,1.476C5.052,24.381,5.717,24.024,5.906,23.385 M20.875,41.611c0.378-1.295-0.353-2.645-1.651-3.024
	c-1.289-0.374-2.635,0.36-3.009,1.646c-0.37,1.297,0.351,2.637,1.647,3.021C19.149,43.625,20.505,42.885,20.875,41.611
	 M41.512,27.664c-0.128,0.47,0.135,0.972,0.602,1.108c0.481,0.141,0.974-0.129,1.112-0.611c0.141-0.47-0.127-0.968-0.605-1.108
	C42.155,26.919,41.653,27.189,41.512,27.664 M32.767,6.065c-0.335,1.117,0.312,2.291,1.431,2.621
	c1.124,0.329,2.296-0.322,2.623-1.438c0.335-1.115-0.306-2.293-1.425-2.62C34.268,4.297,33.098,4.948,32.767,6.065 M37.355,10.248
	c-0.294,1.009,0.28,2.044,1.271,2.337c0.997,0.293,2.035-0.287,2.331-1.28c0.296-0.989-0.272-2.032-1.275-2.322
	C38.693,8.691,37.657,9.263,37.355,10.248 M40.615,15.634c-0.239,0.794,0.224,1.614,1.003,1.844c0.792,0.23,1.606-0.219,1.836-1.003
	c0.23-0.784-0.214-1.605-0.999-1.832C41.671,14.41,40.839,14.855,40.615,15.634 M42,21.622c-0.191,0.627,0.171,1.3,0.815,1.485
	c0.631,0.188,1.295-0.179,1.48-0.815c0.187-0.624-0.172-1.294-0.807-1.482C42.854,20.625,42.177,20.99,42,21.622 M5.781,16.237
	c-0.47-0.14-0.968,0.13-1.103,0.603c-0.137,0.475,0.125,0.98,0.602,1.118c0.478,0.137,0.972-0.138,1.11-0.611
	C6.53,16.871,6.263,16.377,5.781,16.237 M24.005,1.289c-1.13-0.339-2.29,0.312-2.627,1.427c-0.331,1.121,0.304,2.288,1.426,2.623
	c1.125,0.331,2.292-0.316,2.625-1.426C25.766,2.793,25.124,1.612,24.005,1.289 M18.038,2.623c-1.003-0.289-2.041,0.283-2.337,1.269
	c-0.292,0.995,0.286,2.037,1.281,2.333c0.993,0.293,2.041-0.269,2.329-1.272C19.592,3.96,19.022,2.916,18.038,2.623 M12.647,5.884
	c-0.791-0.232-1.602,0.223-1.832,1.003c-0.229,0.789,0.212,1.604,1.001,1.835C12.6,8.954,13.421,8.5,13.655,7.72
	C13.882,6.94,13.433,6.118,12.647,5.884 M8.442,10.508c-0.633-0.17-1.299,0.182-1.487,0.821c-0.19,0.63,0.18,1.294,0.811,1.476
	c0.635,0.184,1.295-0.172,1.483-0.804C9.448,11.369,9.073,10.705,8.442,10.508 M31.688,4.783c-0.376,1.276-1.72,2.01-3.007,1.631
	c-1.303-0.383-2.016-1.723-1.642-3.013c0.372-1.282,1.718-2.023,3.011-1.648C31.344,2.132,32.08,3.486,31.688,4.783 M11.172,47.613
	c1.089,1.028,2.807,0.972,3.824-0.113c1.021-1.093,0.983-2.806-0.116-3.832c-1.091-1.024-2.807-0.968-3.828,0.122
	C10.031,44.863,10.077,46.583,11.172,47.613 M19.057,49.623c0.978,0.921,2.492,0.878,3.401-0.09
	c0.917-0.966,0.877-2.496-0.094-3.408c-0.967-0.917-2.5-0.862-3.412,0.1C18.04,47.19,18.085,48.723,19.057,49.623 M27.412,49.02
	c0.766,0.722,1.965,0.675,2.682-0.082c0.715-0.756,0.689-1.959-0.076-2.676c-0.771-0.721-1.967-0.682-2.689,0.082
	C26.617,47.101,26.652,48.303,27.412,49.02 M35.195,46.063c0.623,0.583,1.596,0.552,2.172-0.067
	c0.582-0.609,0.553-1.578-0.066-2.166c-0.617-0.58-1.587-0.553-2.167,0.063C34.551,44.511,34.58,45.484,35.195,46.063 M3.478,36.655
	c1.024-1.089,0.974-2.808-0.114-3.832c-1.093-1.038-2.803-0.962-3.824,0.12c-1.026,1.081-0.989,2.795,0.104,3.829
	C0.741,37.791,2.459,37.736,3.478,36.655 M0.565,28.909c0.915-0.963,0.872-2.491-0.102-3.414c-0.969-0.915-2.49-0.86-3.408,0.104
	c-0.905,0.964-0.864,2.5,0.104,3.409C-1.868,29.925-0.346,29.877,0.565,28.909 M-0.043,20.559c0.717-0.761,0.674-1.969-0.08-2.683
	c-0.772-0.724-1.973-0.684-2.684,0.082c-0.709,0.769-0.686,1.954,0.078,2.676C-1.968,21.355-0.763,21.311-0.043,20.559
	 M1.932,12.623c0.57-0.618,0.549-1.589-0.068-2.17C1.244,9.867,0.279,9.905-0.303,10.51c-0.59,0.614-0.557,1.585,0.066,2.172
	C0.377,13.259,1.346,13.232,1.932,12.623 M8.678,43.265c1.181-1.258,1.123-3.219-0.129-4.411c-1.262-1.184-3.23-1.117-4.406,0.133
	c-1.175,1.266-1.121,3.217,0.135,4.407C5.529,44.573,7.501,44.519,8.678,43.265 M41.746,39.261c-0.432,0.458-0.408,1.187,0.051,1.62
	c0.462,0.425,1.183,0.409,1.614-0.061c0.437-0.455,0.419-1.18-0.05-1.606C42.913,38.774,42.177,38.798,41.746,39.261 M44.424,8.346
	c-1.024,1.087-0.978,2.802,0.119,3.83c1.089,1.032,2.806,0.967,3.826-0.116c1.032-1.093,0.979-2.796-0.118-3.831
	C47.172,7.205,45.454,7.26,44.424,8.346 M47.341,16.089c-0.915,0.967-0.87,2.493,0.105,3.402c0.966,0.92,2.491,0.865,3.402-0.102
	c0.917-0.961,0.868-2.49-0.104-3.403C49.775,15.076,48.251,15.12,47.341,16.089 M47.943,24.443
	c-0.709,0.764-0.668,1.963,0.089,2.676c0.773,0.725,1.963,0.682,2.682-0.078c0.717-0.761,0.691-1.957-0.085-2.68
	C49.873,23.647,48.667,23.684,47.943,24.443 M45.976,32.377c-0.581,0.615-0.554,1.591,0.062,2.179
	c0.624,0.579,1.596,0.548,2.178-0.075c0.576-0.612,0.553-1.586-0.063-2.174C47.528,31.73,46.558,31.758,45.976,32.377 M6.111,4.121
	C5.642,3.694,4.919,3.712,4.49,4.169C4.052,4.631,4.075,5.354,4.533,5.787C5,6.226,5.724,6.204,6.152,5.742
	C6.589,5.279,6.569,4.559,6.111,4.121 M36.744-2.614c-1.106-1.04-2.805-0.975-3.831,0.11c-1.026,1.087-0.979,2.796,0.109,3.831
	c1.087,1.026,2.812,0.974,3.832-0.113C37.877,0.13,37.832-1.589,36.744-2.614 M28.845-4.634c-0.972-0.913-2.489-0.861-3.406,0.098
	c-0.907,0.969-0.866,2.496,0.109,3.409c0.968,0.915,2.494,0.866,3.399-0.099C29.86-2.201,29.807-3.719,28.845-4.634 M20.495-4.025
	c-0.772-0.716-1.965-0.674-2.68,0.082c-0.717,0.765-0.686,1.96,0.082,2.687c0.756,0.712,1.961,0.674,2.682-0.087
	C21.29-2.101,21.255-3.309,20.495-4.025 M12.71-1.064c-0.625-0.58-1.597-0.551-2.174,0.063c-0.58,0.619-0.551,1.58,0.061,2.17
	c0.625,0.579,1.593,0.552,2.174-0.066C13.355,0.49,13.321-0.484,12.71-1.064 M43.76,6.018c-1.176,1.241-3.152,1.306-4.404,0.12
	c-1.258-1.186-1.303-3.155-0.121-4.403c1.175-1.252,3.14-1.315,4.399-0.134C44.884,2.781,44.942,4.751,43.76,6.018"/>
</svg>
