<?xml version="1.0" encoding="UTF-8" standalone="no"?>
<!-- Generator: Adobe Illustrator 16.0.0, SVG Export Plug-In . SVG Version: 6.00 Build 0)  -->
<!DOCTYPE svg  PUBLIC '-//W3C//DTD SVG 1.1//EN'  'http://www.w3.org/Graphics/SVG/1.1/DTD/svg11.dtd'>
<svg id="Layer_1" xmlns:rdf="http://www.w3.org/1999/02/22-rdf-syntax-ns#" xmlns="http://www.w3.org/2000/svg" enable-background="new -26.056 -27.5 100 100" xml:space="preserve" height="100px" viewBox="-26.056 -27.5 100 100" width="100px" version="1.1" y="0px" x="0px" xmlns:cc="http://creativecommons.org/ns#" xmlns:xlink="http://www.w3.org/1999/xlink" xmlns:dc="http://purl.org/dc/elements/1.1/">
<path d="m4.312-4.965c-0.562-0.71-1.579-0.821-2.29-0.265-0.701 0.56-0.824 1.574-0.27 2.285 0.563 0.708 1.585 0.827 2.29 0.271 0.705-0.566 0.828-1.583 0.27-2.291m16.367-6.137c-0.131-0.892-0.96-1.504-1.851-1.372-0.887 0.13-1.504 0.951-1.375 1.843 0.129 0.893 0.958 1.502 1.847 1.374 0.889-0.134 1.508-0.954 1.379-1.845m7.918 65.364c-0.886 0.13-1.503 0.956-1.374 1.846 0.13 0.894 0.962 1.505 1.846 1.375 0.89-0.131 1.509-0.956 1.377-1.849-0.125-0.89-0.954-1.505-1.849-1.372m15.258-6.578c-0.701 0.561-0.825 1.579-0.267 2.284 0.557 0.71 1.583 0.819 2.284 0.269 0.709-0.561 0.827-1.579 0.272-2.29-0.557-0.702-1.58-0.823-2.289-0.263m-49.625-3.06c0.672 1.814 2.668 2.715 4.458 2.047 1.8-0.664 2.721-2.646 2.051-4.458-0.664-1.793-2.658-2.713-4.457-2.043-1.794 0.666-2.714 2.668-2.052 4.454m6.578 5.865c0.519 1.669 2.276 2.582 3.933 2.061 1.659-0.513 2.59-2.269 2.071-3.934-0.515-1.657-2.286-2.582-3.943-2.064-1.658 0.513-2.581 2.276-2.061 3.937m8.247 3.981c0.343 1.355 1.714 2.163 3.063 1.822 1.354-0.349 2.168-1.713 1.824-3.068-0.345-1.352-1.72-2.166-3.069-1.819-1.348 0.342-2.163 1.713-1.818 3.065m8.933 1.947c0.223 1.132 1.326 1.863 2.455 1.638 1.126-0.228 1.859-1.324 1.632-2.459-0.224-1.126-1.324-1.858-2.455-1.631-1.125 0.226-1.858 1.328-1.632 2.452m-25.876-25.921c1.716-0.85 2.419-2.931 1.567-4.646-0.856-1.728-2.929-2.421-4.652-1.567-1.708 0.847-2.425 2.919-1.569 4.647 0.852 1.719 2.938 2.417 4.654 1.566m-0.122-9.169c1.514-0.846 2.051-2.77 1.203-4.283-0.852-1.52-2.77-2.054-4.284-1.199-1.516 0.846-2.053 2.76-1.203 4.28 0.852 1.51 2.766 2.052 4.284 1.202m1.967-9.15c1.179-0.742 1.528-2.307 0.784-3.489-0.747-1.181-2.304-1.522-3.483-0.778-1.174 0.749-1.53 2.299-0.78 3.48 0.742 1.182 2.302 1.534 3.479 0.787m4.139-8.121c0.938-0.668 1.16-1.966 0.496-2.901-0.672-0.948-1.965-1.162-2.901-0.498-0.94 0.668-1.169 1.958-0.498 2.907 0.666 0.935 1.965 1.156 2.903 0.492m-3.62 35.267c1.91-0.822 2.792-3.046 1.965-4.96-0.827-1.924-3.046-2.793-4.952-1.971-1.914 0.823-2.805 3.036-1.977 4.96 0.827 1.913 3.054 2.798 4.964 1.971m42.229 12.757c-0.768 0.329-1.124 1.218-0.793 1.986 0.335 0.779 1.223 1.128 1.99 0.793 0.77-0.329 1.128-1.22 0.795-1.992-0.329-0.765-1.222-1.12-1.992-0.787m19.08-37.572c-1.712 0.847-2.415 2.929-1.567 4.644 0.858 1.73 2.933 2.421 4.65 1.566 1.713-0.842 2.424-2.916 1.567-4.644-0.849-1.712-2.936-2.417-4.65-1.566m0.12 9.17c-1.509 0.848-2.054 2.768-1.203 4.288 0.857 1.516 2.773 2.047 4.282 1.194 1.516-0.85 2.057-2.758 1.205-4.278-0.854-1.517-2.768-2.057-4.284-1.204m-1.961 9.145c-1.176 0.745-1.53 2.304-0.784 3.479 0.746 1.183 2.304 1.528 3.481 0.783 1.175-0.744 1.533-2.298 0.783-3.482-0.747-1.171-2.307-1.524-3.48-0.78m-4.142 8.126c-0.94 0.666-1.162 1.967-0.498 2.903 0.668 0.944 1.967 1.159 2.909 0.497 0.938-0.662 1.158-1.961 0.49-2.907-0.661-0.935-1.96-1.159-2.901-0.493m-37.813-50.012c-0.333-0.774-1.226-1.123-1.996-0.79-0.766 0.329-1.125 1.217-0.792 1.993 0.331 0.765 1.225 1.115 1.993 0.786 0.768-0.333 1.126-1.225 0.795-1.989m41.677 9.436c-0.666-1.808-2.664-2.712-4.457-2.046-1.796 0.661-2.719 2.649-2.049 4.453 0.666 1.799 2.662 2.718 4.452 2.054 1.797-0.663 2.722-2.662 2.054-4.461m-6.574-5.86c-0.52-1.665-2.282-2.586-3.938-2.063-1.653 0.513-2.59 2.274-2.066 3.939 0.515 1.658 2.285 2.584 3.937 2.065 1.661-0.519 2.583-2.286 2.067-3.941m-8.242-3.976c-0.349-1.359-1.725-2.167-3.068-1.821-1.352 0.343-2.168 1.711-1.819 3.069 0.343 1.35 1.72 2.17 3.067 1.818 1.346-0.344 2.163-1.72 1.82-3.066m-8.942-1.945c-0.224-1.138-1.318-1.86-2.447-1.636-1.128 0.226-1.864 1.314-1.636 2.45 0.224 1.125 1.322 1.86 2.455 1.633 1.124-0.228 1.853-1.325 1.628-2.447m26.504 24.022c-1.912 0.827-4.136-0.06-4.962-1.976-0.829-1.922 0.059-4.132 1.975-4.961 1.912-0.822 4.127 0.051 4.958 1.975 0.827 1.911-0.057 4.137-1.971 4.962m-41.626-32.377c-0.297-1.115-1.441-1.768-2.556-1.468-1.109 0.298-1.775 1.434-1.475 2.547 0.3 1.119 1.448 1.773 2.552 1.476 1.115-0.298 1.777-1.44 1.479-2.555m22.362 1.083c0.295-1.116-0.373-2.255-1.483-2.551-1.108-0.295-2.251 0.353-2.549 1.472-0.298 1.115 0.364 2.257 1.474 2.552 1.112 0.296 2.258-0.36 2.558-1.473m-23.843 80.888c-1.106-0.294-2.25 0.364-2.552 1.477-0.294 1.114 0.368 2.253 1.475 2.551 1.117 0.298 2.263-0.356 2.556-1.474 0.3-1.113-0.362-2.257-1.479-2.554m21.283 0c-1.109 0.297-1.771 1.441-1.474 2.554 0.296 1.117 1.448 1.771 2.551 1.47 1.118-0.294 1.778-1.435 1.479-2.551-0.296-1.109-1.444-1.767-2.556-1.473m-56.811-28.76c-0.127 2.467 1.763 4.539 4.202 4.666 2.457 0.128 4.547-1.733 4.676-4.201 0.127-2.451-1.755-4.541-4.202-4.667-2.451-0.129-4.549 1.756-4.676 4.202m4.758 10.228c-0.233 2.226 1.369 4.192 3.584 4.428 2.21 0.23 4.196-1.359 4.427-3.585 0.233-2.21-1.377-4.196-3.589-4.428-2.211-0.235-4.189 1.376-4.422 3.585m7.683 8.862c-0.28 1.771 0.923 3.417 2.686 3.698 1.763 0.28 3.418-0.916 3.7-2.684 0.278-1.763-0.925-3.42-2.689-3.698s-3.419 0.925-3.697 2.684m9.52 6.821c-0.308 1.449 0.617 2.864 2.051 3.17 1.442 0.305 2.86-0.607 3.168-2.058 0.303-1.437-0.617-2.859-2.057-3.164-1.438-0.306-2.858 0.619-3.162 2.052m-17.29-43.605c2.451-0.126 4.329-2.219 4.206-4.672-0.129-2.465-2.22-4.332-4.678-4.201-2.437 0.128-4.331 2.203-4.2 4.667 0.128 2.451 2.226 4.335 4.672 4.206m4.512-10.846c2.214-0.233 3.822-2.216 3.589-4.429-0.231-2.22-2.217-3.821-4.427-3.588-2.217 0.233-3.82 2.208-3.584 4.431 0.228 2.212 2.206 3.821 4.422 3.586m6.952-9.757c1.765-0.279 2.966-1.938 2.688-3.703-0.28-1.771-1.936-2.962-3.705-2.682-1.757 0.276-2.961 1.922-2.68 3.693 0.279 1.763 1.934 2.973 3.697 2.692m8.988-7.458c1.442-0.307 2.363-1.721 2.057-3.168-0.308-1.445-1.722-2.354-3.164-2.048-1.439 0.306-2.364 1.713-2.057 3.162 0.306 1.44 1.726 2.361 3.164 2.054m-22.146 39.642c2.664 0 4.827-2.167 4.827-4.839 0-2.682-2.163-4.829-4.827-4.829-2.662 0-4.837 2.147-4.837 4.834 0 2.667 2.175 4.834 4.837 4.834m43.194 36.42c-1.069 0-1.941 0.866-1.941 1.943 0 1.073 0.872 1.936 1.941 1.936 1.074 0 1.945-0.862 1.945-1.939 0-1.074-0.871-1.94-1.945-1.94m41.494-34.509c-2.438 0.126-4.323 2.216-4.195 4.667 0.129 2.466 2.217 4.329 4.67 4.203 2.442-0.129 4.331-2.201 4.2-4.668-0.126-2.446-2.222-4.331-4.675-4.202m-4.511 10.845c-2.208 0.231-3.818 2.218-3.587 4.428 0.233 2.226 2.222 3.815 4.431 3.589 2.214-0.239 3.816-2.206 3.583-4.432-0.231-2.213-2.212-3.82-4.427-3.585m-6.942 9.763c-1.766 0.278-2.968 1.936-2.688 3.698 0.279 1.768 1.935 2.964 3.7 2.684 1.759-0.281 2.964-1.923 2.686-3.698-0.282-1.763-1.939-2.962-3.698-2.684m-8.992 7.453c-1.443 0.306-2.364 1.728-2.059 3.165 0.31 1.45 1.726 2.366 3.168 2.058 1.439-0.306 2.362-1.721 2.053-3.17-0.306-1.434-1.722-2.359-3.162-2.053m-19.104-78.001c0-1.077-0.871-1.939-1.945-1.939-1.069 0-1.941 0.861-1.941 1.938s0.872 1.942 1.941 1.942c1.074 0.001 1.945-0.866 1.945-1.941m44.228 32.244c0.129-2.465-1.762-4.538-4.204-4.667-2.449-0.13-4.541 1.736-4.67 4.201-0.128 2.454 1.757 4.543 4.195 4.672 2.453 0.127 4.549-1.757 4.679-4.206m-4.761-10.227c0.233-2.22-1.371-4.198-3.583-4.431-2.205-0.23-4.197 1.366-4.431 3.588-0.231 2.211 1.383 4.196 3.589 4.429 2.213 0.234 4.192-1.373 4.425-3.586m-7.675-8.86c0.28-1.773-0.927-3.418-2.682-3.699-1.77-0.277-3.421 0.915-3.704 2.688-0.28 1.763 0.922 3.422 2.688 3.701 1.761 0.279 3.42-0.929 3.698-2.69m-9.526-6.822c0.31-1.451-0.615-2.856-2.053-3.16-1.444-0.307-2.858 0.601-3.164 2.046-0.304 1.445 0.613 2.859 2.055 3.168 1.44 0.305 2.856-0.616 3.162-2.054m18.98 41.694c-2.668 0-4.831-2.167-4.831-4.839 0-2.682 2.163-4.829 4.839-4.829 2.664 0 4.83 2.147 4.83 4.834 0 2.667-2.166 4.834-4.838 4.834m-32.255 6.269c0.805-0.418 1.104-1.442 0.666-2.245-0.445-0.804-1.448-1.117-2.249-0.674-0.813 0.438-1.104 1.449-0.672 2.257 0.426 0.806 1.439 1.108 2.255 0.662m2.381-3.756c0.734-0.396 0.989-1.283 0.619-2.008-0.392-0.713-1.287-0.991-2.01-0.6-0.721 0.381-0.985 1.295-0.605 2.014 0.396 0.71 1.291 0.975 1.996 0.594m1.186-4.359c0.628-0.345 0.855-1.128 0.511-1.755-0.333-0.631-1.114-0.859-1.741-0.524-0.635 0.348-0.858 1.124-0.535 1.763 0.332 0.618 1.144 0.849 1.765 0.516m-0.208-4.528c0.545-0.313 0.752-0.991 0.468-1.521-0.296-0.542-0.972-0.736-1.5-0.445-0.547 0.283-0.753 0.967-0.457 1.506 0.282 0.539 0.967 0.737 1.489 0.46m-10.306 14.511c-0.441-0.807-1.444-1.104-2.259-0.674-0.813 0.428-1.094 1.438-0.654 2.253 0.423 0.804 1.43 1.121 2.239 0.668 0.817-0.425 1.105-1.442 0.674-2.247m-4.535 0.184c-0.38-0.715-1.287-0.972-2.014-0.6-0.721 0.388-0.973 1.293-0.597 2.002 0.394 0.725 1.291 0.991 2.006 0.607 0.73-0.377 0.995-1.284 0.605-2.009m-4.361-1.168c-0.349-0.623-1.128-0.863-1.751-0.517-0.639 0.349-0.866 1.124-0.521 1.749 0.327 0.629 1.117 0.872 1.744 0.531 0.63-0.352 0.863-1.144 0.528-1.763m-3.771-2.397c-0.286-0.533-0.96-0.725-1.497-0.446-0.541 0.282-0.74 0.966-0.453 1.496 0.284 0.545 0.958 0.743 1.497 0.443 0.538-0.274 0.741-0.948 0.453-1.493m16.996 1.83c-0.498-0.925-1.638-1.281-2.564-0.769-0.913 0.486-1.264 1.63-0.756 2.549 0.495 0.913 1.64 1.246 2.558 0.764 0.911-0.501 1.252-1.652 0.762-2.544m3.197-17.638c0.239 0.45 0.8 0.612 1.24 0.372 0.455-0.241 0.623-0.792 0.376-1.244-0.244-0.458-0.793-0.626-1.255-0.393-0.43 0.251-0.609 0.825-0.361 1.265m-15.487-6.778c0.433 0.821 1.452 1.112 2.257 0.684 0.807-0.44 1.103-1.45 0.674-2.26-0.431-0.804-1.454-1.113-2.259-0.672-0.811 0.435-1.096 1.448-0.672 2.248m4.544-0.178c0.376 0.714 1.273 0.982 1.988 0.592 0.729-0.393 0.985-1.284 0.605-2.002-0.378-0.714-1.277-0.991-1.998-0.591-0.724 0.384-0.977 1.277-0.595 2.001m4.349 1.166c0.339 0.628 1.143 0.858 1.75 0.517 0.645-0.343 0.871-1.127 0.528-1.753-0.331-0.628-1.126-0.86-1.743-0.532-0.633 0.351-0.872 1.144-0.535 1.768m3.766 2.395c0.29 0.538 0.96 0.734 1.514 0.459 0.533-0.306 0.743-0.974 0.451-1.514-0.296-0.54-0.966-0.748-1.503-0.449-0.552 0.3-0.751 0.97-0.462 1.504m-21.431 15.438c-0.457 0.238-0.619 0.799-0.376 1.262 0.243 0.442 0.797 0.61 1.258 0.376 0.445-0.255 0.613-0.812 0.366-1.264-0.243-0.441-0.806-0.617-1.248-0.374m1.835-16.964c-0.819 0.446-1.121 1.439-0.68 2.264 0.44 0.8 1.436 1.107 2.241 0.67 0.825-0.436 1.126-1.453 0.688-2.249-0.427-0.808-1.445-1.127-2.249-0.685m-2.398 3.776c-0.721 0.387-0.985 1.29-0.611 2 0.396 0.714 1.292 0.99 2.006 0.6 0.721-0.383 0.995-1.286 0.609-2.006-0.399-0.712-1.288-0.979-2.004-0.594m-1.175 4.361c-0.625 0.333-0.854 1.122-0.519 1.743 0.347 0.638 1.128 0.865 1.757 0.53 0.625-0.342 0.862-1.14 0.523-1.755-0.341-0.633-1.122-0.865-1.761-0.518m0.188 4.537c-0.533 0.294-0.736 0.972-0.444 1.504 0.293 0.547 0.967 0.734 1.499 0.439 0.541-0.274 0.758-0.962 0.452-1.501-0.3-0.529-0.958-0.736-1.507-0.442m9.311-14.749c0.49 0.911 0.159 2.054-0.756 2.549-0.928 0.498-2.063 0.142-2.558-0.771-0.501-0.91-0.155-2.056 0.758-2.55 0.914-0.494 2.068-0.151 2.556 0.772m4.942 34.428c1.125 0.337 2.297-0.306 2.619-1.42 0.323-1.122-0.304-2.298-1.424-2.627-1.13-0.329-2.3 0.312-2.633 1.438-0.325 1.109 0.32 2.276 1.438 2.609m5.963-1.33c1.006 0.292 2.042-0.271 2.338-1.275 0.291-0.987-0.271-2.029-1.273-2.323-0.995-0.301-2.05 0.276-2.337 1.27-0.293 0.998 0.285 2.036 1.272 2.328m5.391-3.266c0.781 0.235 1.603-0.215 1.827-0.991 0.239-0.791-0.211-1.613-0.993-1.841-0.787-0.239-1.608 0.22-1.845 1.001-0.223 0.777 0.231 1.601 1.011 1.831m4.199-4.631c0.643 0.188 1.309-0.176 1.494-0.807 0.185-0.627-0.178-1.303-0.811-1.491-0.629-0.18-1.299 0.181-1.487 0.813-0.182 0.636 0.179 1.306 0.804 1.485m-24.315 4.459c0.323-1.108-0.313-2.296-1.442-2.621-1.123-0.329-2.284 0.308-2.613 1.438-0.327 1.109 0.302 2.282 1.428 2.613 1.124 0.321 2.296-0.317 2.627-1.43m-4.586-4.188c0.29-0.995-0.292-2.049-1.287-2.343-0.993-0.292-2.025 0.286-2.325 1.281-0.294 0.993 0.272 2.033 1.271 2.329 1.007 0.3 2.04-0.272 2.341-1.267m-3.265-5.395c0.229-0.784-0.221-1.603-0.997-1.818-0.795-0.238-1.618 0.208-1.833 0.995-0.222 0.78 0.204 1.603 0.997 1.834 0.777 0.235 1.601-0.22 1.833-1.011m-1.388-5.979c0.188-0.632-0.17-1.296-0.805-1.491-0.633-0.186-1.297 0.185-1.493 0.817-0.194 0.63 0.184 1.291 0.813 1.476 0.631 0.194 1.296-0.163 1.485-0.802m14.969 18.226c0.378-1.295-0.353-2.645-1.651-3.024-1.289-0.374-2.635 0.36-3.009 1.646-0.37 1.297 0.351 2.637 1.647 3.021 1.287 0.371 2.643-0.369 3.013-1.643m20.637-13.947c-0.128 0.47 0.135 0.972 0.602 1.108 0.481 0.141 0.974-0.129 1.112-0.611 0.141-0.47-0.127-0.968-0.605-1.108-0.466-0.134-0.968 0.136-1.109 0.611m-8.745-21.599c-0.335 1.117 0.312 2.291 1.431 2.621 1.124 0.329 2.296-0.322 2.623-1.438 0.335-1.115-0.306-2.293-1.425-2.62-1.128-0.331-2.298 0.32-2.629 1.437m4.588 4.183c-0.294 1.009 0.28 2.044 1.271 2.337 0.997 0.293 2.035-0.287 2.331-1.28 0.296-0.989-0.272-2.032-1.275-2.322-0.989-0.292-2.025 0.28-2.327 1.265m3.26 5.386c-0.239 0.794 0.224 1.614 1.003 1.844 0.792 0.23 1.606-0.219 1.836-1.003s-0.214-1.605-0.999-1.832c-0.784-0.233-1.616 0.212-1.84 0.991m1.385 5.988c-0.191 0.627 0.171 1.3 0.815 1.485 0.631 0.188 1.295-0.179 1.48-0.815 0.187-0.624-0.172-1.294-0.807-1.482-0.634-0.185-1.311 0.18-1.488 0.812m-36.219-5.385c-0.47-0.14-0.968 0.13-1.103 0.603-0.137 0.475 0.125 0.98 0.602 1.118 0.478 0.137 0.972-0.138 1.11-0.611 0.14-0.476-0.127-0.97-0.609-1.11m18.224-14.948c-1.13-0.339-2.29 0.312-2.627 1.427-0.331 1.121 0.304 2.288 1.426 2.623 1.125 0.331 2.292-0.316 2.625-1.426 0.337-1.12-0.305-2.301-1.424-2.624m-5.967 1.334c-1.003-0.289-2.041 0.283-2.337 1.269-0.292 0.995 0.286 2.037 1.281 2.333 0.993 0.293 2.041-0.269 2.329-1.272 0.281-0.993-0.289-2.037-1.273-2.33m-5.391 3.261c-0.791-0.232-1.602 0.223-1.832 1.003-0.229 0.789 0.212 1.604 1.001 1.835 0.784 0.232 1.605-0.222 1.839-1.002 0.227-0.78-0.222-1.602-1.008-1.836m-4.205 4.624c-0.633-0.17-1.299 0.182-1.487 0.821-0.19 0.63 0.18 1.294 0.811 1.476 0.635 0.184 1.295-0.172 1.483-0.804 0.199-0.632-0.176-1.296-0.807-1.493m23.246-5.725c-0.376 1.276-1.72 2.01-3.007 1.631-1.303-0.383-2.016-1.723-1.642-3.013 0.372-1.282 1.718-2.023 3.011-1.648 1.294 0.379 2.03 1.733 1.638 3.03m-20.516 42.83c1.089 1.028 2.807 0.972 3.824-0.113 1.021-1.093 0.983-2.806-0.116-3.832-1.091-1.024-2.807-0.968-3.828 0.122-1.021 1.073-0.975 2.793 0.12 3.823m7.885 2.01c0.978 0.921 2.492 0.878 3.401-0.09 0.917-0.966 0.877-2.496-0.094-3.408-0.967-0.917-2.5-0.862-3.412 0.1-0.912 0.965-0.867 2.498 0.105 3.398m8.355-0.603c0.766 0.722 1.965 0.675 2.682-0.082 0.715-0.756 0.689-1.959-0.076-2.676-0.771-0.721-1.967-0.682-2.689 0.082-0.712 0.757-0.677 1.959 0.083 2.676m7.783-2.957c0.623 0.583 1.596 0.552 2.172-0.067 0.582-0.609 0.553-1.578-0.066-2.166-0.617-0.58-1.587-0.553-2.167 0.063-0.583 0.618-0.554 1.591 0.061 2.17m-31.717-9.408c1.024-1.089 0.974-2.808-0.114-3.832-1.093-1.038-2.803-0.962-3.824 0.12-1.026 1.081-0.989 2.795 0.104 3.829 1.097 1.019 2.815 0.964 3.834-0.117m-2.913-7.746c0.915-0.963 0.872-2.491-0.102-3.414-0.969-0.915-2.49-0.86-3.408 0.104-0.905 0.964-0.864 2.5 0.104 3.409 0.973 0.917 2.495 0.869 3.406-0.099m-0.608-8.35c0.717-0.761 0.674-1.969-0.08-2.683-0.772-0.724-1.973-0.684-2.684 0.082-0.709 0.769-0.686 1.954 0.078 2.676 0.761 0.721 1.966 0.677 2.686-0.075m1.975-7.936c0.57-0.618 0.549-1.589-0.068-2.17-0.62-0.586-1.585-0.548-2.167 0.057-0.59 0.614-0.557 1.585 0.066 2.172 0.614 0.577 1.583 0.55 2.169-0.059m6.746 30.642c1.181-1.258 1.123-3.219-0.129-4.411-1.262-1.184-3.23-1.117-4.406 0.133-1.175 1.266-1.121 3.217 0.135 4.407 1.251 1.179 3.223 1.125 4.4-0.129m33.068-4.004c-0.432 0.458-0.408 1.187 0.051 1.62 0.462 0.425 1.183 0.409 1.614-0.061 0.437-0.455 0.419-1.18-0.05-1.606-0.448-0.44-1.184-0.416-1.615 0.047m2.678-30.915c-1.024 1.087-0.978 2.802 0.119 3.83 1.089 1.032 2.806 0.967 3.826-0.116 1.032-1.093 0.979-2.796-0.118-3.831-1.079-1.024-2.797-0.969-3.827 0.117m2.917 7.743c-0.915 0.967-0.87 2.493 0.105 3.402 0.966 0.92 2.491 0.865 3.402-0.102 0.917-0.961 0.868-2.49-0.104-3.403-0.969-0.91-2.493-0.866-3.403 0.103m0.602 8.354c-0.709 0.764-0.668 1.963 0.089 2.676 0.773 0.725 1.963 0.682 2.682-0.078 0.717-0.761 0.691-1.957-0.085-2.68-0.756-0.714-1.962-0.677-2.686 0.082m-1.967 7.934c-0.581 0.615-0.554 1.591 0.062 2.179 0.624 0.579 1.596 0.548 2.178-0.075 0.576-0.612 0.553-1.586-0.063-2.174-0.625-0.577-1.595-0.549-2.177 0.07m-39.865-28.256c-0.469-0.427-1.192-0.409-1.621 0.048-0.438 0.462-0.415 1.185 0.043 1.618 0.467 0.439 1.191 0.417 1.619-0.045 0.437-0.463 0.417-1.183-0.041-1.621m30.633-6.735c-1.106-1.04-2.805-0.975-3.831 0.11-1.026 1.087-0.979 2.796 0.109 3.831 1.087 1.026 2.812 0.974 3.832-0.113 1.023-1.084 0.978-2.803-0.11-3.828m-7.899-2.02c-0.972-0.913-2.489-0.861-3.406 0.098-0.907 0.969-0.866 2.496 0.109 3.409 0.968 0.915 2.494 0.866 3.399-0.099 0.913-0.975 0.86-2.493-0.102-3.408m-8.35 0.609c-0.772-0.716-1.965-0.674-2.68 0.082-0.717 0.765-0.686 1.96 0.082 2.687 0.756 0.712 1.961 0.674 2.682-0.087 0.711-0.758 0.676-1.966-0.084-2.682m-7.785 2.961c-0.625-0.58-1.597-0.551-2.174 0.063-0.58 0.619-0.551 1.58 0.061 2.17 0.625 0.579 1.593 0.552 2.174-0.066 0.584-0.613 0.55-1.587-0.061-2.167m31.05 7.082c-1.176 1.241-3.152 1.306-4.404 0.12-1.258-1.186-1.303-3.155-0.121-4.403 1.175-1.252 3.14-1.315 4.399-0.134 1.25 1.18 1.308 3.15 0.126 4.417" fill="#F57A14"/>
</svg>
